<svg width="34" height="35" viewBox="0 0 34 35" fill="none" xmlns="http://www.w3.org/2000/svg">
<path d="M27.8428 29.872V27.0877C27.8428 25.6108 27.2561 24.1944 26.2118 23.1501C25.1675 22.1058 23.7511 21.5191 22.2742 21.5191H20.8821C20.5129 21.5191 20.1588 21.3725 19.8977 21.1114C19.6366 20.8503 19.4899 20.4962 19.4899 20.127V13.1663C19.4899 12.4279 19.1966 11.7197 18.6744 11.1975C18.1523 10.6754 17.4441 10.382 16.7057 10.382C15.9672 10.382 15.259 10.6754 14.7369 11.1975C14.2147 11.7197 13.9214 12.4279 13.9214 13.1663V25.6956L10.5802 21.2407C10.3209 20.8949 9.9846 20.6143 9.59799 20.4209C9.21138 20.2276 8.78507 20.127 8.35282 20.127H7.74863C6.54443 20.127 5.56854 21.1029 5.56854 22.3071C5.56854 22.7025 5.67574 23.0909 5.87899 23.4292L9.74496 29.872M16.7057 6.20562V4.81348V6.20562ZM25.0585 14.5584H26.4506H25.0585ZM6.96068 14.5584H8.35282H6.96068ZM10.2225 8.07526L9.23822 7.09102L10.2225 8.07526ZM23.1888 8.07526L24.1731 7.09102L23.1888 8.07526Z" fill="#D2BA8A"/>
<path d="M27.8428 29.872V27.0877C27.8428 25.6108 27.2561 24.1944 26.2118 23.1501C25.1675 22.1058 23.7511 21.5191 22.2742 21.5191H20.8821C20.5129 21.5191 20.1588 21.3725 19.8977 21.1114C19.6366 20.8503 19.4899 20.4962 19.4899 20.127V13.1663C19.4899 12.4279 19.1966 11.7197 18.6744 11.1975C18.1523 10.6754 17.4441 10.382 16.7057 10.382V10.382C15.9672 10.382 15.259 10.6754 14.7369 11.1975C14.2147 11.7197 13.9214 12.4279 13.9214 13.1663V25.6956L10.5802 21.2407C10.3209 20.8949 9.9846 20.6143 9.59799 20.4209C9.21138 20.2276 8.78507 20.127 8.35282 20.127H7.74863C6.54443 20.127 5.56854 21.1029 5.56854 22.3071C5.56854 22.7025 5.67574 23.0909 5.87899 23.4292L9.74496 29.872M16.7057 6.20562V4.81348M25.0585 14.5584H26.4506M6.96068 14.5584H8.35282M10.2225 8.07526L9.23822 7.09102M23.1888 8.07526L24.1731 7.09102" stroke="#D2BA8A" stroke-width="1.39214" stroke-linecap="round" stroke-linejoin="round"/>
</svg>
