<svg width="35" height="34" viewBox="0 0 35 34" fill="none" xmlns="http://www.w3.org/2000/svg">
<g clip-path="url(#clip0_211_2072)">
<path d="M30.1872 8.24478C30.1872 8.56914 30.4534 8.83209 30.7818 8.83209H31.3763C31.7047 8.83209 31.9709 8.56914 31.9709 8.24478C31.9709 7.92042 31.7047 7.65747 31.3763 7.65747H30.7818C30.4534 7.65747 30.1872 7.92042 30.1872 8.24478Z" fill="#212326"/>
<path d="M12.945 26.4513H15.8333L14.9924 25.6208C14.7695 25.4005 14.467 25.2767 14.1516 25.2767H12.945C8.34788 25.2767 4.62119 21.5955 4.62119 17.0544C4.62119 12.5133 8.34788 8.83209 12.945 8.83209H22.458C27.0551 8.83209 30.7818 12.5133 30.7818 17.0544C30.7818 21.5955 27.0551 25.2767 22.458 25.2767H18.8994C18.4263 25.2767 17.9726 25.0911 17.6381 24.7607L16.653 23.7876C16.0955 23.2369 15.3393 22.9275 14.5509 22.9275H12.945C9.66134 22.9275 6.99942 20.298 6.99942 17.0544C6.99942 13.8108 9.66134 11.1813 12.945 11.1813H22.458C25.7416 11.1813 28.4036 13.8108 28.4036 17.0544C28.4036 20.298 25.7416 22.9275 22.458 22.9275H20.173C19.6999 22.9275 19.2463 22.7419 18.9117 22.4115L17.9266 21.4384C17.3691 20.8877 16.613 20.5783 15.8245 20.5783H12.945C10.9748 20.5783 9.37766 19.0006 9.37766 17.0544C9.37766 15.1083 10.9748 13.5306 12.945 13.5306H22.458C24.4281 13.5306 26.0253 15.1083 26.0253 17.0544C26.0253 18.9768 24.4669 20.5397 22.5299 20.5776L22.5295 20.5783H21.6594C21.1863 20.5783 20.7327 20.3926 20.3981 20.0622L19.413 19.0891C18.9556 18.6372 18.3644 18.3478 17.7314 18.2585L17.7015 18.229H12.945C12.2883 18.229 11.7559 17.7031 11.7559 17.0544C11.7559 16.4057 12.2883 15.8798 12.945 15.8798H22.458C23.1147 15.8798 23.6471 16.4057 23.6471 17.0544C23.6471 17.7031 23.1147 18.229 22.458 18.229H20.0797L20.9206 19.0596C21.1436 19.2799 21.446 19.4036 21.7614 19.4036H22.458C23.7714 19.4036 24.8362 18.3518 24.8362 17.0544C24.8362 15.757 23.7714 14.7052 22.458 14.7052H12.945C11.6316 14.7052 10.5668 15.757 10.5668 17.0544C10.5668 18.3518 11.6316 19.4036 12.945 19.4036H17.3109C17.784 19.4036 18.2377 19.5893 18.5722 19.9197L19.5573 20.8928C20.1148 21.4435 20.871 21.7529 21.6594 21.7529H22.7552V21.7439C25.2437 21.5923 27.2144 19.5507 27.2144 17.0544C27.2144 14.4595 25.0849 12.3559 22.458 12.3559H12.945C10.3181 12.3559 8.18854 14.4595 8.18854 17.0544C8.18854 19.6493 10.3181 21.7529 12.945 21.7529H15.8245C16.2976 21.7529 16.7513 21.9385 17.0858 22.2689L18.0709 23.242C18.6284 23.7927 19.3846 24.1021 20.173 24.1021H22.458C26.3984 24.1021 29.5927 20.9468 29.5927 17.0544C29.5927 13.1621 26.3984 10.0067 22.458 10.0067H12.945C9.00461 10.0067 5.81031 13.1621 5.81031 17.0544C5.81031 20.9468 9.00461 24.1021 12.945 24.1021H14.5509C15.024 24.1021 15.4777 24.2877 15.8122 24.6181L16.7973 25.5912C17.3548 26.142 18.1109 26.4513 18.8994 26.4513H22.458C27.7118 26.4513 31.9709 22.2442 31.9709 17.0544C31.9709 11.8646 27.7118 7.65747 22.458 7.65747L12.945 7.65747C7.69116 7.65747 3.43207 11.8646 3.43207 17.0544C3.43207 22.2442 7.69116 26.4513 12.945 26.4513Z" fill="#212326"/>
</g>
<defs>
<clipPath id="clip0_211_2072">
<rect width="28.5388" height="18.7939" fill="white" transform="translate(3.43207 7.65747)"/>
</clipPath>
</defs>
</svg>
