<svg width="40" height="34" viewBox="0 0 40 34" fill="none" xmlns="http://www.w3.org/2000/svg">
<g clip-path="url(#clip0_211_2052)">
<path d="M39.1336 13.6922C39.1376 13.6632 39.1376 13.6338 39.1336 13.6048C39.1373 13.5812 39.1373 13.557 39.1336 13.5333L38.8499 11.492C38.8091 11.2478 38.6996 11.0195 38.534 10.8328L38.4853 10.7771L38.3963 10.6898L33.4865 6.54358L33.6242 6.67862C33.5115 6.54645 33.3701 6.44073 33.2103 6.36925C33.0504 6.29777 32.8762 6.26234 32.7006 6.26559H31.2098C30.9674 6.26088 30.7305 6.33644 30.5374 6.48005C30.3345 6.3373 30.0903 6.26213 29.8406 6.26559H28.3498C28.1543 6.26248 27.9614 6.31005 27.7907 6.4035C27.62 6.49695 27.4775 6.63296 27.3776 6.79776C27.2236 7.03314 27.1658 7.31673 27.2155 7.59205L27.4019 8.87879C27.2785 8.81019 27.1387 8.77459 26.9968 8.77555H19.778C19.519 8.77714 19.2659 8.85156 19.0488 8.99C18.8388 9.11885 18.6702 9.30335 18.5627 9.52217L18.0036 9.05354C17.7836 8.85396 17.4932 8.74578 17.1934 8.75172H5.86688C5.60696 8.75636 5.35282 8.82754 5.12963 8.95823C4.82428 9.13344 4.60051 9.41833 4.50576 9.75252L0.908489 21.5477C0.841275 21.7421 0.834663 21.9517 0.8895 22.1498C0.944336 22.3478 1.05814 22.5254 1.21637 22.6597C1.2576 22.694 1.30089 22.7258 1.346 22.755C1.346 22.755 1.27307 22.7074 1.23256 22.6677L6.14237 26.8218C6.35007 27.0093 6.62162 27.1141 6.90391 27.1157H18.3196C18.5803 27.109 18.8346 27.0351 19.0569 26.9012C19.1826 26.8339 19.295 26.7451 19.3891 26.6391L19.4296 26.5835L19.4944 26.5041L19.543 26.4167L20.0777 26.8695C20.2825 27.0495 20.5481 27.1485 20.8231 27.1475H32.2631C32.5235 27.139 32.7773 27.0651 33.0003 26.933C33.1232 26.8615 33.235 26.7733 33.3326 26.6709L33.373 26.6153L33.4378 26.5359C33.4723 26.4856 33.5022 26.4325 33.527 26.377C33.5534 26.3288 33.5751 26.2783 33.5918 26.2261L36.8731 15.4555V15.3602C36.8771 15.3232 36.8771 15.286 36.8731 15.249V15.1775C36.877 15.1538 36.877 15.1297 36.8731 15.106C36.8767 15.0558 36.8767 15.0054 36.8731 14.9551H37.9263C38.018 14.9633 38.1102 14.9633 38.2018 14.9551H38.2747C38.334 14.9378 38.3911 14.9137 38.4449 14.8836H38.5259L38.6717 14.7724L38.7365 14.7248L38.8499 14.5818V14.5342L38.931 14.3991C38.9265 14.3729 38.9265 14.346 38.931 14.3197C38.9267 14.3068 38.9267 14.2929 38.931 14.28C38.9482 14.2334 38.9618 14.1856 38.9715 14.137C38.9677 14.1213 38.9677 14.105 38.9715 14.0893C38.9676 14.0657 38.9676 14.0415 38.9715 14.0179C38.9715 14.0179 39.1336 13.7081 39.1336 13.6922Z" fill="black"/>
<path d="M17.5256 9.65724C17.5686 9.69537 17.5987 9.74551 17.6117 9.8009C17.6248 9.85629 17.6202 9.91426 17.5986 9.96701L14.0094 21.7543C13.9642 21.883 13.8717 21.9905 13.7501 22.0561C13.6512 22.121 13.5367 22.1593 13.4179 22.1673H2.01039C1.91297 22.1627 1.82068 22.1231 1.75113 22.0561C1.70975 22.0186 1.68072 21.9698 1.66773 21.9161C1.65474 21.8623 1.65839 21.806 1.67821 21.7543L5.27548 9.96701C5.31693 9.83669 5.40649 9.72623 5.52664 9.65724C5.62723 9.597 5.74121 9.56157 5.85882 9.55398H17.2664C17.363 9.55489 17.4557 9.59181 17.5256 9.65724ZM11.5707 19.3793L13.7177 12.3419H7.70608L5.56714 19.3793H11.5707ZM28.4147 9.77638C28.4536 9.82072 28.5022 9.85589 28.5569 9.87926C28.6117 9.90264 28.671 9.91363 28.7307 9.91141H30.2133C30.2698 9.91195 30.3254 9.89837 30.3751 9.87197C30.4247 9.84556 30.4666 9.80719 30.4969 9.76049C30.5232 9.72401 30.5418 9.68271 30.5515 9.63905C30.5613 9.59539 30.562 9.55025 30.5536 9.50632L30.2619 7.4094C30.2341 7.31235 30.1843 7.22273 30.1161 7.14728C30.0771 7.10294 30.0285 7.06777 29.9738 7.04439C29.9191 7.02102 29.8597 7.01003 29.8001 7.01225H28.3175C28.261 7.01171 28.2053 7.02529 28.1557 7.05169C28.1061 7.0781 28.0641 7.11646 28.0339 7.16317C27.9772 7.27437 27.9529 7.34585 27.9772 7.4094L28.2769 9.50632C28.2923 9.60843 28.3406 9.70304 28.4147 9.77638ZM33.1219 7.39351C33.0941 7.29646 33.0442 7.20684 32.9761 7.13139C32.9388 7.08721 32.8916 7.05206 32.8382 7.02864C32.7848 7.00522 32.7266 6.99418 32.6682 6.99637H31.1774C31.1219 6.99481 31.067 7.00802 31.0185 7.03459C30.97 7.06116 30.9297 7.1001 30.902 7.14728C30.8481 7.21775 30.8247 7.30626 30.8372 7.39351L31.1369 9.49043C31.1557 9.59146 31.2035 9.68514 31.2747 9.76049C31.3143 9.80397 31.363 9.83854 31.4176 9.86185C31.4722 9.88515 31.5311 9.89664 31.5906 9.89551H33.0814C33.1368 9.89623 33.1914 9.88268 33.2397 9.85619C33.2881 9.8297 33.3285 9.79123 33.3569 9.74461C33.3851 9.70907 33.4047 9.66779 33.4146 9.62381C33.4244 9.57983 33.424 9.53426 33.4136 9.49043L33.1219 7.39351ZM27.1102 10.5707L26.9644 9.53809H19.778C19.6652 9.54419 19.556 9.57985 19.462 9.64135C19.4023 9.67325 19.3504 9.71747 19.3098 9.77095C19.2693 9.82443 19.2411 9.8859 19.2271 9.95112L18.6275 11.9209C18.6036 11.9702 18.5954 12.0254 18.6041 12.0793C18.6128 12.1332 18.6379 12.1832 18.6761 12.2228C18.7444 12.2858 18.8336 12.3225 18.9273 12.3261H27.6612L25.5142 19.3635H16.8046C16.6923 19.366 16.5829 19.399 16.4886 19.4588C16.374 19.5301 16.2903 19.6404 16.2536 19.7685L15.646 21.7384C15.6262 21.7889 15.6209 21.8439 15.6309 21.8971C15.641 21.9504 15.6658 21.9999 15.7027 22.0402C15.7689 22.1074 15.8587 22.1472 15.9539 22.1514H27.3938C27.5121 22.1414 27.6262 22.1033 27.726 22.0402C27.8456 21.9743 27.9354 21.8665 27.9772 21.7384L31.2665 10.9678H27.564C27.5052 10.9689 27.4469 10.9583 27.3925 10.9364C27.3382 10.9145 27.289 10.882 27.248 10.8407C27.181 10.7687 27.1336 10.6813 27.1102 10.5866V10.5707Z" fill="white"/>
</g>
<defs>
<clipPath id="clip0_211_2052">
<rect width="38.2838" height="20.8821" fill="white" transform="translate(0.852722 6.26538)"/>
</clipPath>
</defs>
</svg>
