<svg width="37" height="34" viewBox="0 0 37 34" fill="none" xmlns="http://www.w3.org/2000/svg">
<g clip-path="url(#clip0_211_2076)">
<path d="M9.20078 9.74585C7.78725 9.74585 6.43163 10.3074 5.43212 11.3069L2.17013 14.5689C1.17062 15.5684 0.6091 16.924 0.6091 18.3375C0.6091 21.2811 2.99529 23.6672 5.93881 23.6672C7.35234 23.6672 8.70796 23.1057 9.70747 22.1062L11.9638 19.8499C11.9638 19.8498 11.9639 19.8499 11.9638 19.8499L18.538 13.2757C19.0154 12.7983 19.6628 12.5301 20.3379 12.5301C21.4681 12.5301 22.4263 13.2668 22.7585 14.2861L24.8333 12.2113C23.8868 10.7289 22.2272 9.74585 20.3379 9.74585C18.9244 9.74585 17.5687 10.3074 16.5692 11.3069L7.73871 20.1374C7.26134 20.6148 6.61391 20.883 5.93881 20.883C4.533 20.883 3.39338 19.7434 3.39338 18.3375C3.39338 17.6624 3.66156 17.015 4.13891 16.5376L7.40088 13.2757C7.87825 12.7983 8.52568 12.5301 9.20078 12.5301C10.3311 12.5301 11.2892 13.2668 11.6214 14.2862L13.6963 12.2114C12.7498 10.7289 11.0901 9.74585 9.20078 9.74585Z" fill="#394149"/>
<path d="M18.8758 20.1374C18.3985 20.6148 17.751 20.883 17.0759 20.883C15.9458 20.883 14.9877 20.1465 14.6554 19.1273L12.5807 21.2021C13.5272 22.6843 15.1868 23.6672 17.0759 23.6672C18.4895 23.6672 19.8451 23.1057 20.8446 22.1062L29.6751 13.2757C30.1525 12.7983 30.7999 12.5301 31.475 12.5301C32.8808 12.5301 34.0204 13.6698 34.0204 15.0756C34.0204 15.7507 33.7523 16.3981 33.2749 16.8755L30.0129 20.1374C29.5356 20.6148 28.8881 20.883 28.213 20.883C27.0828 20.883 26.1247 20.1464 25.7924 19.1271L23.7177 21.2019C24.6642 22.6843 26.3238 23.6672 28.213 23.6672C29.6266 23.6672 30.9822 23.1057 31.9817 22.1062L35.2437 18.8442C36.2432 17.8447 36.8047 16.4891 36.8047 15.0756C36.8047 12.132 34.4185 9.74585 31.475 9.74585C30.0615 9.74585 28.7058 10.3074 27.7063 11.3069L18.8758 20.1374Z" fill="#394149"/>
</g>
<defs>
<clipPath id="clip0_211_2076">
<rect width="36.1956" height="13.9214" fill="white" transform="translate(0.6091 9.74585)"/>
</clipPath>
</defs>
</svg>
