<svg width="34" height="34" viewBox="0 0 34 34" fill="none" xmlns="http://www.w3.org/2000/svg">
<g clip-path="url(#clip0_211_2056)">
<path d="M31.6151 9.44275C31.6151 9.46628 31.6151 9.4957 31.609 9.51336C31.5783 9.74284 31.5783 9.97232 31.5967 10.2077C31.609 10.2665 31.6212 10.3254 31.6703 10.3724C31.75 10.4607 31.8726 10.4431 31.9217 10.3371C31.9462 10.2842 31.9462 10.2312 31.9339 10.1783C31.8726 9.95467 31.8603 9.7193 31.8542 9.48982C31.8542 9.47805 31.8542 9.4604 31.8542 9.44275C31.9216 9.43686 31.983 9.43097 32.0381 9.43097C32.0811 9.42509 32.1178 9.41921 32.1485 9.40155C32.2404 9.35448 32.2404 9.25445 32.1423 9.20738C32.1056 9.18972 32.0565 9.18384 32.0136 9.18384C31.8603 9.18972 31.7071 9.18972 31.5538 9.18972C31.4986 9.18972 31.4434 9.19561 31.3882 9.20149C31.3576 9.20738 31.3208 9.20738 31.2963 9.22503C31.2534 9.24268 31.2289 9.2721 31.2289 9.31329C31.235 9.35448 31.2534 9.37802 31.2963 9.39567C31.3208 9.41333 31.3515 9.41921 31.3821 9.41921C31.4557 9.42509 31.5354 9.43686 31.6151 9.44275ZM33.3011 9.71342C33.3011 9.7193 33.3072 9.72519 33.3072 9.72519C33.3317 9.88406 33.3563 10.0371 33.3746 10.19C33.3808 10.243 33.3869 10.2901 33.4237 10.3313C33.5034 10.4313 33.626 10.4195 33.6812 10.3136C33.7057 10.2606 33.7118 10.2077 33.6996 10.1488C33.6628 9.97232 33.6444 9.7958 33.6076 9.62515C33.5831 9.51924 33.5525 9.41921 33.5218 9.32506C33.5034 9.26622 33.4605 9.22503 33.3869 9.21915C33.3134 9.20738 33.2582 9.24268 33.2275 9.29564C33.1907 9.34271 33.1601 9.38979 33.1355 9.44275C33.0926 9.53689 33.0558 9.63104 33.0068 9.7193C33.0006 9.74284 32.9945 9.76049 32.9823 9.77814C32.9762 9.76637 32.97 9.76049 32.97 9.76049C32.8903 9.61339 32.8167 9.46628 32.7371 9.32506C32.7248 9.31329 32.7186 9.30152 32.7125 9.28975C32.6757 9.2368 32.6328 9.20738 32.5654 9.20738C32.5041 9.21326 32.455 9.24857 32.4244 9.30152C32.4121 9.32506 32.4121 9.34271 32.406 9.36625C32.3814 9.55454 32.3508 9.74284 32.3263 9.93113C32.314 10.0371 32.3079 10.143 32.3079 10.2489C32.3018 10.2724 32.3079 10.3018 32.3201 10.3254C32.3324 10.3724 32.3692 10.4019 32.4182 10.4078C32.4795 10.4136 32.5224 10.396 32.5409 10.3489C32.5592 10.3136 32.5654 10.2842 32.5715 10.2548C32.5961 10.1488 32.6144 10.0488 32.6328 9.94879C32.6451 9.88994 32.6512 9.84287 32.6696 9.77814C32.6819 9.80168 32.6941 9.81933 32.7064 9.83698C32.7615 9.9076 32.8167 9.97821 32.8842 10.0371C32.9516 10.0841 33.0068 10.0782 33.062 10.0253C33.0743 10.0135 33.0804 10.0076 33.0926 9.99586C33.1478 9.91348 33.2153 9.8311 33.2704 9.74872C33.2827 9.73695 33.2888 9.72519 33.3011 9.71342Z" fill="#3A3B7B"/>
<path d="M19.1748 9.55841C19.1322 9.67024 19.1241 9.7508 19.1438 9.81776C19.1655 9.90882 19.2219 9.93863 19.2985 9.91547C20.0186 9.74457 21.5976 10.2297 22.1823 10.3649C22.3201 10.3933 22.4323 10.2224 22.3382 10.0693C22.2009 9.92097 20.6225 9.28595 20.0203 9.25132C19.7842 9.23852 19.3622 9.18042 19.1748 9.55841Z" fill="#3A3B7B"/>
<path d="M25.3461 7.50278C25.4228 7.54529 25.4657 7.58585 25.4869 7.63116C25.5185 7.6906 25.5018 7.73172 25.4488 7.75271C24.9728 7.97568 24.3394 8.93562 24.0837 9.2667C24.0217 9.34286 23.8788 9.2986 23.8572 9.17335C23.8616 9.03174 24.4231 7.98999 24.7365 7.70625C24.8596 7.59547 25.0631 7.37811 25.3461 7.50278Z" fill="#3A3B7B"/>
<path d="M21.5554 7.03015C21.6476 6.96345 21.7434 6.94008 21.7923 6.98342C22.5105 7.57292 22.8914 8.50645 23.1272 9.36107C23.1361 9.38098 23.1366 9.40955 23.1295 9.43936C23.1266 9.46484 23.1072 9.49175 23.0764 9.51257C23.0435 9.53556 23.0152 9.54256 23.0018 9.52275C22.6871 9.11184 20.8893 7.51306 21.5554 7.03015Z" fill="#3A3B7B"/>
<path d="M6.34684 17.2505C6.51897 17.1275 6.7061 17.0251 6.90412 16.9457C7.1113 16.8888 7.33213 16.8982 7.53324 16.9726C7.7343 17.0469 7.90474 17.182 8.01868 17.3575C8.12062 17.5326 8.16048 17.7347 8.13235 17.9335C8.10421 18.1321 8.00957 18.3167 7.86263 18.4593C7.74874 18.575 7.61942 18.6757 7.47814 18.7589C6.84841 19.1493 6.21308 19.5184 5.57778 19.9088C5.44779 20.0066 5.30988 20.0942 5.16539 20.1709C4.9456 20.2761 4.69443 20.3043 4.45528 20.2506C4.21614 20.1969 4.00408 20.0646 3.85577 19.8768C3.7449 19.7437 3.65133 19.5983 3.57712 19.4435C2.97526 18.2294 2.3511 17.0205 1.77152 15.785C1.50402 15.2501 1.28668 14.635 1.07492 14.0413C0.983295 13.8688 0.965403 13.6688 1.02505 13.4839C1.0847 13.2989 1.21718 13.1435 1.39431 13.0509C1.57145 12.9582 1.77925 12.9355 1.97354 12.9877C2.16784 13.0398 2.33328 13.1626 2.43469 13.3299C2.7464 13.7275 3.02232 14.1498 3.25947 14.5923C3.86134 15.662 4.43535 16.7317 5.01492 17.7694C5.04867 17.8267 5.08588 17.882 5.12638 17.9352C5.56261 17.7591 5.97291 17.529 6.34684 17.2505Z" fill="#3A3B7B"/>
<path d="M12.5698 16.8773C11.1933 18.4231 8.88614 18.0326 7.727 16.0429C6.9022 14.6309 6.75732 12.2988 8.55179 10.8279C8.93498 10.52 9.39318 10.3102 9.88368 10.2182C10.4851 10.1354 11.0984 10.2373 11.6358 10.5091C12.1733 10.781 12.6075 11.2089 12.8763 11.7319C13.8571 13.4435 13.7178 15.6257 12.5698 16.8773ZM12.0125 13.2723C11.8663 12.8517 11.5729 12.4926 11.1821 12.256C10.961 12.1048 10.6924 12.0312 10.4214 12.0478C10.1504 12.0643 9.89359 12.17 9.69421 12.3469C8.89732 13.0262 8.73009 14.6362 9.30967 15.5936C9.38356 15.7498 9.49203 15.8885 9.62761 16.0002C9.76319 16.1118 9.92256 16.1937 10.0946 16.24C10.2665 16.2864 10.447 16.2962 10.6233 16.2686C10.7997 16.241 10.9675 16.1767 11.1153 16.0803C11.5473 15.7589 11.8642 15.3163 12.022 14.814C12.1798 14.3117 12.1707 13.7747 11.9958 13.2777L12.0125 13.2723Z" fill="#3A3B7B"/>
<path d="M18.1872 13.9464C18.0463 13.9755 17.9007 13.9772 17.759 13.9515C17.6174 13.9258 17.4826 13.8731 17.3624 13.7967C17.2573 13.7389 17.1669 13.6596 17.0975 13.5643C17.0282 13.469 16.9817 13.3602 16.9615 13.2456C16.9412 13.1311 16.9477 13.0136 16.9804 12.9017C17.0131 12.7898 17.0713 12.6863 17.1507 12.5985C17.289 12.4222 17.4854 12.2959 17.708 12.2402C18.289 12.0783 18.8872 11.9796 19.4913 11.946C19.624 11.9312 19.7585 11.942 19.8868 11.9777C20.0151 12.0135 20.1346 12.0735 20.2385 12.1542C20.3423 12.2349 20.4283 12.3347 20.4914 12.4478C20.5544 12.5608 20.5934 12.6848 20.6058 12.8125C20.78 13.4396 20.799 14.0972 20.6615 14.7327C20.16 16.7866 18.4324 17.4926 16.4931 16.8347C15.9487 16.6588 15.4714 16.3311 15.1221 15.8933C14.6564 15.3662 14.3261 14.7415 14.158 14.0694C14.0218 13.471 14.0367 12.85 14.2016 12.2582C14.3664 11.6664 14.6763 11.1211 15.1054 10.6677C15.5127 10.1749 16.0413 9.78703 16.6435 9.53908C17.0241 9.33775 17.4695 9.2805 17.8919 9.37862C17.9877 9.40407 18.0747 9.45367 18.1438 9.52226C18.2129 9.59086 18.2616 9.67594 18.285 9.76871C18.3083 9.86148 18.3053 9.95854 18.2764 10.0498C18.2474 10.1411 18.1935 10.2233 18.1204 10.2879C17.9812 10.4088 17.83 10.5163 17.6689 10.6088C17.1735 10.9116 16.7423 11.3019 16.3983 11.7588C16.1728 12.0545 16.0175 12.394 15.9434 12.7534C15.8692 13.1129 15.8781 13.4836 15.9692 13.8395C16.0956 14.3247 16.3761 14.7602 16.7717 15.0857C17.9977 16.1554 19.5916 15.1231 19.3129 13.6629C18.9061 13.7592 18.5494 13.8608 18.1872 13.9464Z" fill="#3A3B7B"/>
<path d="M25.6772 16.963C23.8661 18.0328 21.8041 16.963 21.3527 14.7166C21.0239 13.112 21.6481 10.8655 23.8327 10.0097C24.2974 9.83157 24.8016 9.76902 25.2983 9.82788C25.8951 9.93273 26.4425 10.2147 26.8634 10.6341C27.2844 11.0534 27.5576 11.589 27.6445 12.1653C28.0123 14.0747 27.1763 16.1126 25.6772 16.963ZM26.307 13.3634C26.3064 12.919 26.1427 12.4891 25.8445 12.1492C25.685 11.939 25.4546 11.7884 25.1924 11.723C24.9302 11.6577 24.6525 11.6816 24.4066 11.7909C23.4258 12.1973 22.7348 13.6736 22.9856 14.7594C23.0047 14.9298 23.0624 15.0941 23.1546 15.2409C23.2468 15.3876 23.3713 15.5133 23.5194 15.6091C23.6675 15.7048 23.8356 15.7684 24.0119 15.7954C24.1883 15.8222 24.3687 15.8119 24.5404 15.7649C25.0588 15.5911 25.5077 15.2663 25.8244 14.8357C26.1411 14.4051 26.3099 13.8904 26.307 13.3634Z" fill="#3A3B7B"/>
<path d="M29.476 17.4124C29.4487 17.6082 29.3414 17.7855 29.1779 17.9054C29.0143 18.0252 28.8078 18.0778 28.6039 18.0516C28.3999 18.0254 28.2152 17.9224 28.0903 17.7654C27.9653 17.6085 27.9106 17.4103 27.9379 17.2145C27.9653 17.0188 28.0725 16.8414 28.236 16.7216C28.3996 16.6017 28.6061 16.5491 28.8101 16.5754C29.014 16.6016 29.1988 16.7045 29.3237 16.8615C29.4486 17.0185 29.5034 17.2167 29.476 17.4124ZM28.9912 10.197C29.0972 10.0417 29.2526 9.92334 29.4344 9.85972C29.6162 9.79611 29.8146 9.79059 29.9999 9.84401C30.1883 9.88925 30.3547 9.99523 30.4714 10.1442C30.588 10.2932 30.6478 10.4761 30.6408 10.6624C30.6162 10.9611 30.5696 11.2578 30.5014 11.5502C30.3175 12.5398 30.1392 13.5292 29.9442 14.5081C29.855 14.8985 29.738 15.2729 29.6098 15.6687C29.5652 15.7925 29.4907 15.9043 29.3924 15.995C29.3313 16.0633 29.2533 16.1156 29.1656 16.1472C29.0778 16.1789 28.9832 16.1887 28.8904 16.1759C28.7976 16.1631 28.7097 16.1281 28.6347 16.0741C28.5598 16.02 28.5003 15.9486 28.4618 15.8666C28.3955 15.7196 28.3595 15.5615 28.3559 15.4013C28.3559 14.7381 28.3559 14.0695 28.4005 13.4009C28.4762 12.4467 28.6252 11.4992 28.8463 10.5661C28.8723 10.4411 28.9213 10.3215 28.9912 10.2131V10.197Z" fill="#3A3B7B"/>
<path fill-rule="evenodd" clip-rule="evenodd" d="M3.99227 21.7104C3.92647 21.8514 3.90842 22.0085 3.94058 22.1598C3.96197 22.3592 4.00895 22.5553 4.08046 22.7437C4.16973 22.9743 4.26963 23.2024 4.39281 23.4836C4.42114 23.5483 4.45074 23.6158 4.48172 23.6869C4.64783 24.0677 4.85625 24.5545 5.13426 25.2589C5.21295 25.4591 5.28282 25.6608 5.35319 25.864C5.38161 25.946 5.41014 26.0284 5.43934 26.1109C5.54401 26.4044 5.72412 26.668 5.96284 26.8769C6.06421 26.9917 6.19867 27.0754 6.34944 27.1172C6.50316 27.1599 6.66664 27.1572 6.81872 27.1095C6.9708 27.0617 7.10437 26.9712 7.2021 26.8496C7.29791 26.7303 7.35488 26.5866 7.36595 26.4365C7.42811 26.1441 7.4069 25.8409 7.30445 25.559C7.14185 25.0909 6.95664 24.6221 6.74306 24.1636L6.74207 24.1616C6.39071 23.4443 6.03356 22.7319 5.6595 22.0192L5.6567 22.0142C5.5472 21.8286 5.40489 21.6626 5.23617 21.5237C5.12664 21.3998 4.97556 21.3162 4.80871 21.2874C4.6383 21.258 4.46256 21.2877 4.31284 21.3711C4.17121 21.4487 4.05895 21.5675 3.99227 21.7104Z" fill="#3A3B7B"/>
<path fill-rule="evenodd" clip-rule="evenodd" d="M9.35885 19.944C8.80792 19.8071 8.23255 19.7871 7.67284 19.8856C7.23932 19.9266 6.81295 20.0225 6.51687 20.2127C6.36629 20.3094 6.24454 20.4336 6.17682 20.5916C6.10873 20.7503 6.10003 20.9319 6.15584 21.1342C6.25772 21.5048 6.39003 21.8652 6.52187 22.2243L6.54323 22.2825L6.54375 22.2838C6.94072 23.3272 7.34148 24.3671 7.74589 25.4034C7.79305 25.5668 7.85974 25.7243 7.94461 25.8729L7.9462 25.8757C8.05832 26.0603 8.20213 26.2254 8.37155 26.3641C8.45628 26.4403 8.56106 26.4931 8.67468 26.5167C8.78941 26.5404 8.90873 26.5335 9.01964 26.4967C9.13059 26.4598 9.22883 26.3944 9.3037 26.3076C9.37736 26.2223 9.42559 26.1194 9.4433 26.0099C9.51639 25.7126 9.49298 25.4008 9.37614 25.1166C9.33969 25.0209 9.31108 24.9232 9.28094 24.8202C9.27089 24.7859 9.2607 24.751 9.24995 24.7155C10.1757 24.3682 11.1606 23.9012 11.507 22.8148C11.6426 22.4394 11.6539 22.0329 11.5393 21.651C11.4246 21.2687 11.1893 20.9299 10.8658 20.6811C10.4255 20.3329 9.91118 20.0813 9.35885 19.944ZM7.83175 21.2765C7.84997 21.2715 7.86834 21.2668 7.88675 21.2625C8.48942 21.1715 9.10601 21.2927 9.623 21.6036C9.85084 21.7556 9.94417 21.9246 9.9602 22.0872C9.97675 22.2546 9.91332 22.436 9.78592 22.6104C9.54518 22.9398 9.10587 23.2034 8.70903 23.2526C8.41973 22.6131 8.12595 21.9478 7.83175 21.2765Z" fill="#3A3B7B"/>
<path d="M13.0318 18.7736C13.6879 18.4827 14.5006 18.4325 15.1365 18.637C15.2967 18.6818 15.4356 18.7786 15.5296 18.911C15.623 19.0425 15.6661 19.201 15.6517 19.3595C15.6507 19.4623 15.6244 19.5635 15.5749 19.6548C15.5245 19.7478 15.4516 19.8277 15.3622 19.8879C15.2729 19.948 15.1697 19.9867 15.0615 20.0005C14.9533 20.0144 14.8432 20.003 14.7405 19.9673L14.7327 19.9646L14.7254 19.9609C14.6729 19.9345 14.6171 19.9147 14.5594 19.9017L14.5557 19.9009C14.1084 19.7869 13.6864 19.9759 13.5322 20.208C13.4587 20.3187 13.4496 20.4305 13.5108 20.5322C13.5764 20.641 13.7372 20.7632 14.0626 20.8503C14.1521 20.8739 14.2439 20.8966 14.3369 20.9197C14.5943 20.9837 14.8617 21.0501 15.1203 21.1422L15.1213 21.1426C16.3142 21.5782 16.7585 22.4805 16.6064 23.3291C16.456 24.1684 15.7257 24.9321 14.6275 25.1123C14.2279 25.1973 13.8121 25.1807 13.4211 25.0643C13.0292 24.9474 12.6759 24.7342 12.3964 24.4457L12.3891 24.4382C12.3009 24.3295 12.2415 24.2018 12.2152 24.0664C12.191 23.9441 12.2038 23.8178 12.2519 23.7022C12.2998 23.5873 12.3807 23.4879 12.4852 23.4155C12.5955 23.3333 12.7285 23.2841 12.8677 23.2738C13.0065 23.2636 13.1454 23.2925 13.2672 23.357C13.3889 23.4134 13.5021 23.4854 13.6037 23.571L13.6056 23.5726C13.7854 23.7304 14.0028 23.7715 14.2114 23.7334C14.4229 23.6948 14.6219 23.5746 14.7499 23.4152C14.877 23.2568 14.928 23.0686 14.8674 22.8859C14.8065 22.7019 14.6232 22.4957 14.2206 22.3234C14.1154 22.2805 14.0062 22.2459 13.8927 22.2122C13.8621 22.2031 13.831 22.1941 13.7995 22.1849C13.7155 22.1604 13.6292 22.1353 13.5445 22.1075C13.4862 22.0884 13.4283 22.0703 13.371 22.0524C13.2144 22.0035 13.0617 21.9557 12.9148 21.8917C12.5949 21.7872 12.3186 21.5866 12.127 21.3194C11.9345 21.0512 11.8377 20.7305 11.8509 20.4051C11.8519 19.6122 12.3722 19.066 13.0318 18.7736Z" fill="#3A3B7B"/>
<path d="M21.3495 18.6892C21.2223 18.6295 21.0816 18.6012 20.9402 18.6068C20.7987 18.6124 20.661 18.6516 20.5393 18.7211C20.4184 18.7901 20.3172 18.8868 20.2446 19.0024C20.1781 19.0998 20.1321 19.2087 20.1091 19.3231C20.0862 19.4374 20.0868 19.5548 20.1107 19.6688C20.1344 19.8154 20.1607 19.9578 20.1866 20.0984C20.2296 20.3309 20.2714 20.5582 20.2989 20.79L20.3 20.7959C20.3627 21.1594 20.3956 21.527 20.3985 21.8954L20.3988 21.9006C20.4203 22.2985 20.279 22.6886 20.0054 22.9881L20.001 22.9935C19.912 23.103 19.793 23.1866 19.6572 23.2349C19.5215 23.2832 19.3744 23.2943 19.2325 23.2669C19.0906 23.2396 18.9594 23.1749 18.8536 23.0801C18.7478 22.9852 18.6714 22.8637 18.6334 22.7297C18.552 22.4472 18.505 22.1567 18.493 21.8639L18.6319 19.7414C18.634 19.7137 18.6363 19.6853 18.6387 19.6566C18.644 19.5921 18.6494 19.5265 18.6516 19.4652C18.6549 19.3751 18.6521 19.2824 18.6302 19.1947C18.6078 19.1051 18.5653 19.0198 18.4897 18.9472C18.415 18.8753 18.314 18.8222 18.187 18.7861C17.9573 18.7223 17.763 18.7243 17.6012 18.7903C17.4392 18.8562 17.3283 18.9786 17.2498 19.12C17.1719 19.2602 17.1218 19.4262 17.084 19.5924C17.0559 19.7158 17.0333 19.8453 17.0118 19.9686C17.0044 20.0111 16.9972 20.0528 16.9898 20.0933L16.9896 20.0945C16.8749 20.7705 16.8407 21.4569 16.8878 22.1404C16.8966 22.5098 16.9768 22.8744 17.1245 23.2156C17.2911 23.6558 17.5929 24.0372 17.99 24.3095C18.388 24.5823 18.8629 24.7327 19.3518 24.7406C19.8408 24.7485 20.3207 24.6137 20.7281 24.354C21.1348 24.0947 21.4499 23.723 21.6319 23.2881C21.8865 22.7341 22.0061 22.1317 21.9814 21.5266C21.9664 21.0849 21.9414 20.6398 21.9165 20.197C21.9042 19.9797 21.892 19.763 21.8811 19.5475C21.8756 19.3315 21.8014 19.1222 21.6683 18.9479C21.586 18.8376 21.4765 18.7487 21.3495 18.6892Z" fill="#3A3B7B"/>
<path d="M25.8522 22.0171C25.8393 22.0329 25.8257 22.0491 25.8115 22.0661C25.708 21.4932 25.6121 20.9204 25.5161 20.3468C25.4816 20.141 25.447 19.9343 25.4122 19.7283L25.4083 19.7053L25.3955 19.6854C25.3716 19.648 25.3692 19.6114 25.3692 19.5332V19.5241L25.3677 19.5152C25.3417 19.3538 25.2657 19.2035 25.1494 19.0841C25.0335 18.9651 24.883 18.8822 24.7174 18.8463C24.5521 18.8071 24.3784 18.8158 24.2181 18.8711C24.0583 18.9263 23.919 19.0255 23.8175 19.1562C23.7332 19.2565 23.6641 19.3678 23.6123 19.4868C23.4948 19.7429 23.3762 19.9998 23.2573 20.2573L23.2553 20.2617C22.9584 20.9046 22.6596 21.5518 22.3695 22.2041L22.3686 22.2062C22.1905 22.6291 22.0434 23.0748 21.8969 23.5191C21.8677 23.6077 21.8384 23.6964 21.8089 23.7848C21.756 23.925 21.7329 24.0739 21.7408 24.2228C21.7312 24.356 21.7644 24.489 21.8361 24.6036C21.9092 24.7206 22.0187 24.8127 22.1492 24.8668C22.2874 24.925 22.442 24.9374 22.5884 24.9019C22.7345 24.8666 22.8642 24.7856 22.9572 24.6719C23.0759 24.5317 23.178 24.3788 23.2613 24.2169C23.5071 23.7344 23.742 23.2459 23.9758 22.7596C24.0663 22.5715 24.1542 22.4031 24.2542 22.2196C24.2611 22.2422 24.2681 22.2643 24.2753 22.2864C24.3802 22.7294 24.5571 23.1536 24.7996 23.5437C24.8455 23.6263 24.9094 23.6985 24.987 23.7554C25.0655 23.8129 25.1562 23.8533 25.2526 23.8738C25.349 23.8943 25.4489 23.8944 25.5454 23.8741C25.6417 23.8538 25.7326 23.8134 25.8112 23.7561L25.9667 23.6444L27.1735 22.6687L27.1022 23.1052C27.0042 23.7053 26.907 24.3003 26.8037 24.8955C26.7361 25.1593 26.7362 25.4348 26.804 25.6985C26.8333 25.8469 26.9081 25.9835 27.0188 26.091C27.1304 26.1993 27.2733 26.2729 27.429 26.3022C27.5848 26.3316 27.7461 26.3153 27.892 26.2555C28.0359 26.1967 28.1583 26.0982 28.2438 25.9728C28.4428 25.7358 28.5666 25.4489 28.6007 25.1463C28.6519 24.7189 28.7097 24.2857 28.7676 23.8526C28.8343 23.3534 28.901 22.8543 28.9573 22.3649L28.9575 22.3634C29.0117 21.8276 29.038 21.2896 29.0361 20.7512C29.048 20.5811 29.0039 20.4116 28.9099 20.2668C28.8155 20.1215 28.6758 20.0085 28.5106 19.9438C28.3388 19.8689 28.1465 19.8488 27.9619 19.8867C27.7786 19.9243 27.6126 20.0171 27.4881 20.1515C27.2655 20.3491 27.0567 20.5605 26.863 20.7844L26.8617 20.786C26.6502 21.0389 26.4401 21.2968 26.2315 21.553C26.1046 21.7087 25.9781 21.8641 25.8522 22.0171Z" fill="#3A3B7B"/>
</g>
<defs>
<clipPath id="clip0_211_2056">
<rect width="32.7153" height="20.186" fill="white" transform="translate(0.990417 6.96143)"/>
</clipPath>
</defs>
</svg>
