<svg width="34" height="34" viewBox="0 0 34 34" fill="none" xmlns="http://www.w3.org/2000/svg">
<g clip-path="url(#clip0_211_2046)">
<path fill-rule="evenodd" clip-rule="evenodd" d="M9.97907 2.89136C13.8233 2.89136 16.9398 6.00776 16.9398 9.85205V2.89136H23.9005C27.7447 2.89136 30.8612 6.00776 30.8612 9.85205C30.8612 13.6963 27.7447 16.8127 23.9005 16.8127C27.7447 16.8127 30.8612 19.9292 30.8612 23.7734C30.8612 25.6823 30.0928 27.4117 28.8485 28.6692L28.8224 28.6954L28.7993 28.7184C27.5415 29.9645 25.8109 30.7341 23.9005 30.7341C22.003 30.7341 20.2829 29.9749 19.0273 28.7437C19.011 28.7277 18.9947 28.7116 18.9785 28.6954C18.9632 28.6802 18.9481 28.6649 18.933 28.6495C17.7001 27.3936 16.9398 25.6723 16.9398 23.7734C16.9398 27.6177 13.8233 30.7341 9.97907 30.7341C6.13478 30.7341 3.01837 27.6177 3.01837 23.7734V16.8127H9.97907C6.13478 16.8127 3.01837 13.6963 3.01837 9.85205C3.01837 6.00776 6.13478 2.89136 9.97907 2.89136ZM15.5476 9.85205C15.5476 12.9275 13.0545 15.4206 9.97907 15.4206V4.2835C13.0545 4.2835 15.5476 6.77662 15.5476 9.85205ZM29.469 23.7734C29.469 20.698 26.9759 18.2049 23.9005 18.2049C20.825 18.2049 18.3319 20.698 18.3319 23.7734H29.469ZM4.41051 18.2049V23.7734C4.41051 26.8489 6.90364 29.342 9.97907 29.342C13.0545 29.342 15.5476 26.8489 15.5476 23.7734V18.2049H4.41051ZM18.3319 15.4206V4.2835H23.9005C26.9759 4.2835 29.469 6.77662 29.469 9.85205C29.469 12.9275 26.9759 15.4206 23.9005 15.4206H18.3319Z" fill="#263238"/>
</g>
<defs>
<clipPath id="clip0_211_2046">
<rect width="27.8428" height="27.8428" fill="white" transform="translate(3.01837 2.89136)"/>
</clipPath>
</defs>
</svg>
