<svg width="34" height="34" viewBox="0 0 34 34" fill="none" xmlns="http://www.w3.org/2000/svg">
<g clip-path="url(#clip0_211_2049)">
<path fill-rule="evenodd" clip-rule="evenodd" d="M10.3226 9.82549L3.37177 16.7064C4.76205 18.0827 6.35024 19.2427 8.08182 20.1501C8.56043 21.407 9.31065 22.5856 10.3325 23.5971C14.1768 27.4028 20.4096 27.4028 24.2538 23.5971C25.2757 22.5856 26.0259 21.407 26.5045 20.1501C28.2361 19.2427 29.8243 18.0827 31.2145 16.7064L24.2694 9.83108C24.2642 9.82594 24.2591 9.82079 24.2538 9.81566C20.4096 6.01002 14.1768 6.01002 10.3325 9.81566C10.3292 9.81894 10.3259 9.82221 10.3226 9.82549ZM23.5888 21.3916C21.5632 22.0683 19.4368 22.4149 17.2932 22.4149C15.1495 22.4149 13.0232 22.0683 10.9976 21.3916C11.2171 21.6798 11.4594 21.9564 11.7246 22.219C14.8 25.2635 19.7863 25.2635 22.8617 22.219C23.1269 21.9564 23.3693 21.6798 23.5888 21.3916ZM11.8674 11.056C12.3896 11.3976 12.9449 11.6898 13.526 11.9281C14.7203 12.4179 16.0004 12.6699 17.2932 12.6699C18.5859 12.6699 19.866 12.4179 21.0603 11.9281C21.6414 11.6898 22.1967 11.3975 22.719 11.056C19.6819 8.19523 14.9044 8.19524 11.8674 11.056Z" fill="#3B4158"/>
</g>
<defs>
<clipPath id="clip0_211_2049">
<rect width="27.8428" height="19.4899" fill="white" transform="translate(3.37177 6.96143)"/>
</clipPath>
</defs>
</svg>
