<svg width="34" height="35" viewBox="0 0 34 35" fill="none" xmlns="http://www.w3.org/2000/svg">
<mask id="path-1-inside-1_1083_235" fill="white">
<path d="M20.0866 17.2527C19.919 17.2527 19.7634 17.2066 19.6251 17.1325V17.1345C19.6251 17.3982 19.5227 17.6458 19.3367 17.8313C19.1507 18.0173 18.9033 18.1198 18.6399 18.1198C18.4698 18.1198 18.3122 18.0725 18.1725 17.9964C18.1584 18.2377 18.062 18.4632 17.8899 18.6354C17.704 18.8213 17.4565 18.9238 17.1929 18.9238C16.6693 18.9238 16.2441 18.5122 16.2134 17.9963C16.0514 18.0838 15.8682 18.1298 15.6793 18.1176C15.1642 18.0838 14.7607 17.6388 14.7607 17.1041V12.6725L14.2561 13.5467C14.0639 13.8811 13.7041 14.0887 13.3168 14.0887C13.128 14.0887 12.9416 14.0392 12.7764 13.9446C12.5708 13.8254 12.4237 13.634 12.3625 13.405C12.301 13.1759 12.3328 12.9363 12.4517 12.731C12.4519 12.731 14.1028 9.87211 14.2035 9.6965C14.2155 9.6701 14.2496 9.59352 14.2786 9.52825C14.3063 9.46593 14.3301 9.40197 14.3529 9.33769C14.8508 7.93213 16.0835 7.05902 17.5703 7.05902C19.501 7.05902 21.0717 8.76224 21.0717 10.8558L21.0718 16.2673C21.0718 16.5307 20.9695 16.7781 20.7837 16.9643C20.5977 17.1502 20.3503 17.2527 20.0866 17.2527L20.0866 17.2527ZM17.5703 7.58257C16.2928 7.58257 15.2745 8.30416 14.8464 9.51278C14.819 9.58953 14.7905 9.66627 14.7572 9.74106C14.6606 9.95769 14.6606 9.95769 14.6333 9.98885L14.6297 9.98573C14.4949 10.2401 14.0945 10.9336 12.905 12.993C12.8562 13.0775 12.8432 13.1756 12.8681 13.2694C12.8934 13.3632 12.9539 13.4422 13.0377 13.4906C13.2978 13.64 13.654 13.5436 13.8022 13.2853L14.7959 11.565C14.8552 11.4625 14.9753 11.4121 15.0904 11.4433C15.2049 11.474 15.2844 11.5778 15.2844 11.6962V17.1043C15.2844 17.3595 15.4769 17.5797 15.7136 17.5953C15.85 17.6025 15.9773 17.5567 16.0729 17.4613C16.1598 17.3744 16.2077 17.2586 16.2077 17.1348V13.5978C16.2077 13.4532 16.3249 13.3359 16.4696 13.3359C16.6142 13.3359 16.7315 13.453 16.7315 13.5978L16.7313 17.9387C16.7313 18.1933 16.9384 18.4004 17.193 18.4004C17.3166 18.4004 17.4327 18.3525 17.5198 18.2656C17.6067 18.1785 17.6546 18.0624 17.6546 17.9387V13.5978C17.6546 13.4531 17.7717 13.3359 17.9165 13.3359C18.0611 13.3359 18.1784 13.453 18.1784 13.5978L18.1782 17.0941V17.1348C18.1782 17.3891 18.3853 17.5962 18.64 17.5962C18.7635 17.5962 18.8793 17.5482 18.9669 17.4609C19.0538 17.3742 19.1017 17.2584 19.1017 17.1346V13.5976C19.1017 13.453 19.2188 13.3357 19.3636 13.3357C19.5082 13.3357 19.6255 13.4528 19.6255 13.5976L19.6251 16.2674C19.6251 16.5221 19.8323 16.7292 20.0866 16.7292C20.2104 16.7292 20.3262 16.6812 20.4131 16.5944C20.5004 16.5072 20.5481 16.3911 20.5481 16.2674L20.5482 10.8559C20.5482 9.0512 19.2124 7.58262 17.5703 7.58262L17.5703 7.58257Z"/>
</mask>
<path d="M20.0866 17.2527C19.919 17.2527 19.7634 17.2066 19.6251 17.1325V17.1345C19.6251 17.3982 19.5227 17.6458 19.3367 17.8313C19.1507 18.0173 18.9033 18.1198 18.6399 18.1198C18.4698 18.1198 18.3122 18.0725 18.1725 17.9964C18.1584 18.2377 18.062 18.4632 17.8899 18.6354C17.704 18.8213 17.4565 18.9238 17.1929 18.9238C16.6693 18.9238 16.2441 18.5122 16.2134 17.9963C16.0514 18.0838 15.8682 18.1298 15.6793 18.1176C15.1642 18.0838 14.7607 17.6388 14.7607 17.1041V12.6725L14.2561 13.5467C14.0639 13.8811 13.7041 14.0887 13.3168 14.0887C13.128 14.0887 12.9416 14.0392 12.7764 13.9446C12.5708 13.8254 12.4237 13.634 12.3625 13.405C12.301 13.1759 12.3328 12.9363 12.4517 12.731C12.4519 12.731 14.1028 9.87211 14.2035 9.6965C14.2155 9.6701 14.2496 9.59352 14.2786 9.52825C14.3063 9.46593 14.3301 9.40197 14.3529 9.33769C14.8508 7.93213 16.0835 7.05902 17.5703 7.05902C19.501 7.05902 21.0717 8.76224 21.0717 10.8558L21.0718 16.2673C21.0718 16.5307 20.9695 16.7781 20.7837 16.9643C20.5977 17.1502 20.3503 17.2527 20.0866 17.2527L20.0866 17.2527ZM17.5703 7.58257C16.2928 7.58257 15.2745 8.30416 14.8464 9.51278C14.819 9.58953 14.7905 9.66627 14.7572 9.74106C14.6606 9.95769 14.6606 9.95769 14.6333 9.98885L14.6297 9.98573C14.4949 10.2401 14.0945 10.9336 12.905 12.993C12.8562 13.0775 12.8432 13.1756 12.8681 13.2694C12.8934 13.3632 12.9539 13.4422 13.0377 13.4906C13.2978 13.64 13.654 13.5436 13.8022 13.2853L14.7959 11.565C14.8552 11.4625 14.9753 11.4121 15.0904 11.4433C15.2049 11.474 15.2844 11.5778 15.2844 11.6962V17.1043C15.2844 17.3595 15.4769 17.5797 15.7136 17.5953C15.85 17.6025 15.9773 17.5567 16.0729 17.4613C16.1598 17.3744 16.2077 17.2586 16.2077 17.1348V13.5978C16.2077 13.4532 16.3249 13.3359 16.4696 13.3359C16.6142 13.3359 16.7315 13.453 16.7315 13.5978L16.7313 17.9387C16.7313 18.1933 16.9384 18.4004 17.193 18.4004C17.3166 18.4004 17.4327 18.3525 17.5198 18.2656C17.6067 18.1785 17.6546 18.0624 17.6546 17.9387V13.5978C17.6546 13.4531 17.7717 13.3359 17.9165 13.3359C18.0611 13.3359 18.1784 13.453 18.1784 13.5978L18.1782 17.0941V17.1348C18.1782 17.3891 18.3853 17.5962 18.64 17.5962C18.7635 17.5962 18.8793 17.5482 18.9669 17.4609C19.0538 17.3742 19.1017 17.2584 19.1017 17.1346V13.5976C19.1017 13.453 19.2188 13.3357 19.3636 13.3357C19.5082 13.3357 19.6255 13.4528 19.6255 13.5976L19.6251 16.2674C19.6251 16.5221 19.8323 16.7292 20.0866 16.7292C20.2104 16.7292 20.3262 16.6812 20.4131 16.5944C20.5004 16.5072 20.5481 16.3911 20.5481 16.2674L20.5482 10.8559C20.5482 9.0512 19.2124 7.58262 17.5703 7.58262L17.5703 7.58257Z" fill="#D2BA8A"/>
<path d="M20.0866 17.2527V16.3246H23.3656L20.573 18.0431L20.0866 17.2527ZM19.6251 17.1325H18.6971V15.5818L20.0637 16.3146L19.6251 17.1325ZM19.3367 17.8313L18.6804 17.175L18.6813 17.1742L19.3367 17.8313ZM18.1725 17.9964L17.246 17.9423L17.3314 16.4816L18.6163 17.1814L18.1725 17.9964ZM17.8899 18.6354L18.5465 19.2913L18.5462 19.2916L17.8899 18.6354ZM16.2134 17.9963L15.7721 17.1798L17.0535 16.4873L17.1399 17.9412L16.2134 17.9963ZM15.6793 18.1176L15.6198 19.0438L15.6185 19.0437L15.6793 18.1176ZM14.7607 12.6725L13.9569 12.2085L15.6888 9.20813V12.6725H14.7607ZM14.2561 13.5467L13.4515 13.0842L13.4523 13.0828L14.2561 13.5467ZM12.7764 13.9446L12.315 14.7499L12.3109 14.7475L12.7764 13.9446ZM12.3625 13.405L13.2589 13.1644L13.2591 13.1655L12.3625 13.405ZM12.4517 12.731L11.6485 12.266L11.9167 11.8029H12.4517V12.731ZM14.2035 9.6965L15.0488 10.0798L15.0305 10.12L15.0086 10.1582L14.2035 9.6965ZM14.2786 9.52825L13.4306 9.15112L13.4306 9.15111L14.2786 9.52825ZM14.3529 9.33769L15.2277 9.64756L15.2276 9.64781L14.3529 9.33769ZM21.0717 10.8558L20.1436 10.8558V10.8558H21.0717ZM21.0718 16.2673L21.9999 16.2673V16.2673H21.0718ZM20.7837 16.9643L21.4406 17.6199L21.44 17.6205L20.7837 16.9643ZM20.0866 17.2527V18.1808H16.8076L19.6002 16.4623L20.0866 17.2527ZM17.5703 7.58257V6.65448H18.8007L18.4627 7.83753L17.5703 7.58257ZM14.8464 9.51278L15.7212 9.8227L15.7205 9.82469L14.8464 9.51278ZM14.7572 9.74106L15.605 10.1185L15.6048 10.119L14.7572 9.74106ZM14.6333 9.98885L15.3322 10.5995L14.7251 11.2944L14.0267 10.6912L14.6333 9.98885ZM14.6297 9.98573L13.8097 9.55113L14.355 8.52217L15.2364 9.28333L14.6297 9.98573ZM12.905 12.993L13.7087 13.4572L13.7083 13.4579L12.905 12.993ZM12.8681 13.2694L11.9719 13.5106L11.9712 13.5077L12.8681 13.2694ZM13.0377 13.4906L12.5754 14.2954L12.5737 14.2944L13.0377 13.4906ZM13.8022 13.2853L12.9973 12.8233L12.9986 12.8211L13.8022 13.2853ZM14.7959 11.565L13.9922 11.1008L13.9928 11.0998L14.7959 11.565ZM15.0904 11.4433L14.8502 12.3398L14.8479 12.3391L15.0904 11.4433ZM15.7136 17.5953L15.6646 18.5221L15.6526 18.5214L15.7136 17.5953ZM16.0729 17.4613L16.7292 18.1176L16.7286 18.1181L16.0729 17.4613ZM16.7315 13.5978H17.6596V13.5978L16.7315 13.5978ZM16.7313 17.9387H15.8032V17.9387L16.7313 17.9387ZM17.5198 18.2656L18.1767 18.9212L18.1754 18.9225L17.5198 18.2656ZM18.1784 13.5978H19.1065V13.5978L18.1784 13.5978ZM18.1782 17.0941H17.2501V17.0941L18.1782 17.0941ZM18.9669 17.4609L19.6225 18.1178L19.6219 18.1184L18.9669 17.4609ZM19.6255 13.5976H20.5536V13.5977L19.6255 13.5976ZM19.6251 16.2674H18.697V16.2673L19.6251 16.2674ZM20.4131 16.5944L21.0694 17.2507L21.0688 17.2513L20.4131 16.5944ZM20.5481 16.2674H19.62V16.2674L20.5481 16.2674ZM20.5482 10.8559H21.4763V10.856L20.5482 10.8559ZM17.5703 7.58262V8.51071H16.3399L16.6779 7.32765L17.5703 7.58262ZM20.0866 18.1808C19.7449 18.1808 19.4398 18.0862 19.1866 17.9504L20.0637 16.3146C20.0757 16.321 20.0833 16.3235 20.0864 16.3243C20.089 16.325 20.0886 16.3246 20.0866 16.3246V18.1808ZM20.5532 17.1325V17.1345H18.6971V17.1325H20.5532ZM20.5532 17.1345C20.5532 17.6436 20.3535 18.128 19.9921 18.4884L18.6813 17.1742C18.6879 17.1676 18.6912 17.1619 18.6931 17.1573C18.6951 17.1526 18.6971 17.1455 18.6971 17.1345H20.5532ZM19.9929 18.4876C19.6328 18.8477 19.1492 19.0479 18.6399 19.0479V17.1917C18.6505 17.1917 18.6575 17.1897 18.6623 17.1878C18.667 17.1858 18.6732 17.1823 18.6804 17.175L19.9929 18.4876ZM18.6399 19.0479C18.2937 19.0479 17.9847 18.951 17.7286 18.8115L18.6163 17.1814C18.6284 17.1879 18.6361 17.1905 18.6391 17.1913C18.6417 17.192 18.6415 17.1917 18.6399 17.1917V19.0479ZM19.099 18.0506C19.0723 18.5074 18.887 18.9505 18.5465 19.2913L17.2333 17.9794C17.2368 17.976 17.2388 17.973 17.2404 17.9691C17.2423 17.9649 17.2451 17.9564 17.246 17.9423L19.099 18.0506ZM18.5462 19.2916C18.186 19.6519 17.7023 19.8519 17.1929 19.8519V17.9957C17.2037 17.9957 17.2108 17.9938 17.2155 17.9918C17.2203 17.9898 17.2264 17.9863 17.2337 17.9791L18.5462 19.2916ZM17.1929 19.8519C16.1683 19.8519 15.3461 19.0478 15.2869 18.0513L17.1399 17.9412C17.1408 17.957 17.1473 17.9709 17.1587 17.9818C17.1643 17.9871 17.1699 17.9905 17.1748 17.9925C17.1792 17.9943 17.1846 17.9957 17.1929 17.9957V19.8519ZM16.6547 18.8127C16.3549 18.9748 15.9995 19.0682 15.6198 19.0438L15.7388 17.1914C15.7388 17.1914 15.7408 17.1916 15.7457 17.1905C15.7509 17.1893 15.76 17.1864 15.7721 17.1798L16.6547 18.8127ZM15.6185 19.0437C14.588 18.9762 13.8327 18.0998 13.8327 17.1041H15.6888C15.6888 17.1355 15.7002 17.1597 15.7145 17.1754C15.7284 17.1908 15.7379 17.1914 15.74 17.1915L15.6185 19.0437ZM13.8327 17.1041V12.6725H15.6888V17.1041H13.8327ZM15.5645 13.1365L15.0599 14.0107L13.4523 13.0828L13.9569 12.2085L15.5645 13.1365ZM15.0608 14.0092C14.7021 14.6332 14.0346 15.0168 13.3168 15.0168V13.1606C13.3737 13.1606 13.4257 13.1291 13.4515 13.0842L15.0608 14.0092ZM13.3168 15.0168C12.9658 15.0168 12.6203 14.9248 12.315 14.7498L13.2378 13.1393C13.2628 13.1536 13.2902 13.1606 13.3168 13.1606V15.0168ZM12.3109 14.7475C11.8943 14.5059 11.591 14.1128 11.4659 13.6446L13.2591 13.1655C13.2583 13.1623 13.256 13.1567 13.2515 13.1509C13.2471 13.1451 13.243 13.1423 13.2419 13.1417L12.3109 14.7475ZM11.4661 13.6456C11.3406 13.1778 11.4063 12.6843 11.6485 12.266L13.2549 13.1961C13.2562 13.1938 13.2585 13.1885 13.2595 13.181C13.2605 13.1735 13.2597 13.1675 13.2589 13.1644L11.4661 13.6456ZM12.4517 11.8029C11.9965 11.9223 11.6557 12.2538 11.6531 12.2581C11.6523 12.2595 11.651 12.2617 11.6506 12.2624C11.6504 12.2628 11.65 12.2635 11.6499 12.2637C11.6498 12.2638 11.6496 12.2641 11.6496 12.2642C11.6494 12.2644 11.6495 12.2643 11.6498 12.2637C11.6505 12.2626 11.6515 12.2608 11.6531 12.2582C11.6561 12.2529 11.6607 12.245 11.6667 12.2345C11.6788 12.2136 11.6966 12.1828 11.7193 12.1436C11.7646 12.0651 11.8295 11.9528 11.9076 11.8174C12.064 11.5467 12.2735 11.1839 12.4862 10.8155C12.9122 10.0777 13.3489 9.32104 13.3984 9.23478L15.0086 10.1582C14.9573 10.2476 14.5183 11.0082 14.0936 11.7437C13.881 12.112 13.6714 12.4749 13.515 12.7457C13.4368 12.8811 13.3719 12.9935 13.3266 13.072C13.3039 13.1113 13.286 13.1422 13.2739 13.1632C13.2678 13.1737 13.2631 13.1819 13.2599 13.1874C13.2583 13.1902 13.257 13.1925 13.256 13.1941C13.2556 13.1949 13.255 13.1959 13.2545 13.1968C13.2543 13.1971 13.2537 13.1982 13.253 13.1994C13.2525 13.2002 13.2512 13.2024 13.2503 13.2038C13.2478 13.2082 12.907 13.5398 12.4517 13.6591V11.8029ZM13.3582 9.31324C13.3685 9.29071 13.4008 9.21807 13.4306 9.15112L15.1266 9.90537C15.0983 9.96897 15.0625 10.0495 15.0488 10.0798L13.3582 9.31324ZM13.4306 9.15111C13.4435 9.12211 13.4578 9.08504 13.4782 9.02756L15.2276 9.64781C15.2024 9.7189 15.1692 9.80975 15.1266 9.90539L13.4306 9.15111ZM13.4781 9.02781C14.1067 7.2532 15.6888 6.13093 17.5703 6.13093V7.98712C16.4782 7.98712 15.5949 8.61106 15.2277 9.64756L13.4781 9.02781ZM17.5703 6.13093C20.0829 6.13093 21.9998 8.32187 21.9998 10.8558H20.1436C20.1436 9.20261 18.919 7.98712 17.5703 7.98712V6.13093ZM21.9998 10.8558L21.9999 16.2673L20.1437 16.2673L20.1436 10.8558L21.9998 10.8558ZM21.9999 16.2673C21.9999 16.7762 21.8002 17.2596 21.4406 17.6199L20.1268 16.3086C20.1342 16.3013 20.1377 16.295 20.1398 16.2902C20.1418 16.2853 20.1437 16.2781 20.1437 16.2673H21.9999ZM21.44 17.6205C21.0797 17.9808 20.5961 18.1808 20.0866 18.1808V16.3246C20.0975 16.3246 20.1046 16.3227 20.1093 16.3207C20.1141 16.3187 20.1202 16.3153 20.1274 16.308L21.44 17.6205ZM19.6002 16.4623L19.6002 16.4623L20.573 18.0431L20.573 18.0432L19.6002 16.4623ZM17.5703 8.51066C16.6879 8.51066 16.0188 8.9827 15.7212 9.8227L13.9716 9.20286C14.5303 7.62561 15.8977 6.65448 17.5703 6.65448V8.51066ZM15.7205 9.82469C15.6912 9.90679 15.6531 10.0105 15.605 10.1185L13.9093 9.3636C13.9278 9.32207 13.9468 9.27226 13.9723 9.20086L15.7205 9.82469ZM15.6048 10.119C15.5623 10.2143 15.5267 10.2948 15.4995 10.3493C15.4825 10.3832 15.4552 10.4353 15.4155 10.4931C15.3752 10.5517 15.3355 10.5958 15.3322 10.5995L13.9344 9.37819C13.9366 9.3757 13.9359 9.37651 13.9348 9.37779C13.9334 9.37943 13.9298 9.38364 13.9251 9.38941C13.9202 9.39538 13.914 9.4031 13.907 9.41228C13.9 9.42154 13.8929 9.43139 13.8857 9.44178C13.8712 9.46294 13.86 9.48147 13.852 9.49549C13.8446 9.50857 13.84 9.51762 13.839 9.51966C13.838 9.52177 13.8386 9.52053 13.8418 9.51378C13.8448 9.50723 13.8492 9.49781 13.8554 9.4841C13.8615 9.4705 13.8689 9.45408 13.878 9.43379C13.887 9.41353 13.8974 9.39032 13.9095 9.36311L15.6048 10.119ZM14.0267 10.6912L14.0231 10.6881L15.2364 9.28333L15.24 9.28644L14.0267 10.6912ZM15.4498 10.4203C15.3045 10.6944 14.8899 11.4121 13.7087 13.4572L12.1014 12.5289C13.2991 10.4551 13.6853 9.78576 13.8097 9.55113L15.4498 10.4203ZM13.7083 13.4579C13.7826 13.3295 13.8033 13.1747 13.7651 13.031L11.9712 13.5077C11.8831 13.1764 11.9297 12.8254 12.1017 12.5282L13.7083 13.4579ZM13.7643 13.0281C13.7261 12.8862 13.6323 12.7622 13.5017 12.6868L12.5737 14.2944C12.2755 14.1222 12.0606 13.8401 11.9719 13.5106L13.7643 13.0281ZM13.5 12.6858C13.3943 12.6251 13.2916 12.6255 13.2206 12.6446C13.15 12.6637 13.0593 12.7152 12.9973 12.8233L14.6072 13.7472C14.2027 14.452 13.2783 14.6991 12.5754 14.2954L13.5 12.6858ZM12.9986 12.8211L13.9922 11.1008L15.5995 12.0292L14.6059 13.7495L12.9986 12.8211ZM13.9928 11.0998C14.2608 10.637 14.808 10.4054 15.3329 10.5474L14.8479 12.3391C15.1425 12.4189 15.4496 12.288 15.599 12.0301L13.9928 11.0998ZM15.3306 10.5468C15.8512 10.6863 16.2125 11.1581 16.2125 11.6962H14.3563C14.3563 11.9974 14.5585 12.2616 14.8502 12.3398L15.3306 10.5468ZM16.2125 11.6962V17.1043H14.3563V11.6962H16.2125ZM16.2125 17.1043C16.2125 16.9985 16.1733 16.9024 16.109 16.8288C16.0448 16.7554 15.9315 16.6795 15.7745 16.6692L15.6526 18.5214C14.8714 18.4699 14.3563 17.7894 14.3563 17.1043H16.2125ZM15.7626 16.6685C15.653 16.6627 15.519 16.7028 15.4172 16.8045L16.7286 18.1181C16.4356 18.4106 16.0471 18.5423 15.6646 18.5221L15.7626 16.6685ZM15.4166 16.805C15.3286 16.8931 15.2796 17.0138 15.2796 17.1348H17.1358C17.1358 17.5034 16.9911 17.8556 16.7292 18.1176L15.4166 16.805ZM15.2796 17.1348V13.5978H17.1358V17.1348H15.2796ZM15.2796 13.5978C15.2796 12.9406 15.8124 12.4078 16.4696 12.4078V14.264C16.8375 14.264 17.1358 13.9657 17.1358 13.5978H15.2796ZM16.4696 12.4078C17.1264 12.4078 17.6596 12.94 17.6596 13.5978H15.8034C15.8034 13.9659 16.102 14.264 16.4696 14.264V12.4078ZM17.6596 13.5978L17.6594 17.9388L15.8032 17.9387L15.8034 13.5978L17.6596 13.5978ZM17.6594 17.9387C17.6594 17.6807 17.451 17.4723 17.193 17.4723V19.3285C16.4259 19.3285 15.8032 18.7058 15.8032 17.9387H17.6594ZM17.193 17.4723C17.0722 17.4723 16.9521 17.521 16.8642 17.6087L18.1754 18.9225C17.9134 19.184 17.5611 19.3285 17.193 19.3285V17.4723ZM16.8629 17.6099C16.7752 17.6978 16.7265 17.818 16.7265 17.9387H18.5827C18.5827 18.3068 18.4383 18.6591 18.1767 18.9212L16.8629 17.6099ZM16.7265 17.9387V13.5978H18.5827V17.9387H16.7265ZM16.7265 13.5978C16.7265 12.941 17.2587 12.4078 17.9165 12.4078V14.264C18.2846 14.264 18.5827 13.9653 18.5827 13.5978H16.7265ZM17.9165 12.4078C18.5733 12.4078 19.1065 12.94 19.1065 13.5978H17.2503C17.2503 13.9659 17.5489 14.264 17.9165 14.264V12.4078ZM19.1065 13.5978L19.1063 17.0941L17.2501 17.0941L17.2503 13.5977L19.1065 13.5978ZM19.1063 17.0941V17.1348H17.2501V17.0941H19.1063ZM19.1063 17.1348C19.1063 16.8761 18.8975 16.6681 18.64 16.6681V18.5243C17.8732 18.5243 17.2501 17.9021 17.2501 17.1348H19.1063ZM18.64 16.6681C18.5167 16.6681 18.3973 16.7183 18.3118 16.8035L19.6219 18.1184C19.3613 18.3781 19.0103 18.5243 18.64 18.5243V16.6681ZM18.3112 16.8041C18.2224 16.8927 18.1736 17.0138 18.1736 17.1346H20.0298C20.0298 17.5031 19.8851 17.8557 19.6225 18.1178L18.3112 16.8041ZM18.1736 17.1346V13.5976H20.0298V17.1346H18.1736ZM18.1736 13.5976C18.1736 12.9408 18.7058 12.4076 19.3636 12.4076V14.2638C19.7317 14.2638 20.0298 13.9652 20.0298 13.5976H18.1736ZM19.3636 12.4076C20.0204 12.4076 20.5536 12.9399 20.5536 13.5976H18.6974C18.6974 13.9658 18.996 14.2638 19.3636 14.2638V12.4076ZM20.5536 13.5977L20.5532 16.2675L18.697 16.2673L18.6974 13.5975L20.5536 13.5977ZM20.5532 16.2674C20.5532 16.01 20.3453 15.8011 20.0866 15.8011V17.6573C19.3192 17.6573 18.697 17.0342 18.697 16.2674H20.5532ZM20.0866 15.8011C19.9649 15.8011 19.8448 15.8504 19.7575 15.9375L21.0688 17.2513C20.8076 17.5119 20.456 17.6573 20.0866 17.6573V15.8011ZM19.7568 15.9382C19.6685 16.0265 19.62 16.1471 19.62 16.2674H21.4762C21.4762 16.635 21.3322 16.9878 21.0694 17.2507L19.7568 15.9382ZM19.62 16.2674L19.6201 10.8559L21.4763 10.856L21.4762 16.2674L19.62 16.2674ZM19.6201 10.8559C19.6201 9.47919 18.6191 8.51071 17.5703 8.51071V6.65453C19.8056 6.65453 21.4763 8.62321 21.4763 10.8559H19.6201ZM16.6779 7.32765L16.6779 7.3276L18.4627 7.83753L18.4627 7.83759L16.6779 7.32765Z" fill="#D2BA8A" mask="url(#path-1-inside-1_1083_235)"/>
<path d="M8.70639 19.0406L8.65463 19.0133C8.64236 19.0354 8.60791 19.0973 8.55698 19.1891C8.57507 19.1981 8.59339 19.2056 8.61166 19.2125C8.64281 19.1564 8.67404 19.0989 8.70639 19.0406Z" fill="#D2BA8A" stroke="#D2BA8A" stroke-width="0.928093"/>
<mask id="path-4-inside-2_1083_235" fill="white">
<path d="M27.9567 26.3107C27.4734 27.1167 26.6785 27.6684 25.7184 27.8645C24.7667 28.0585 23.7659 27.8796 22.8996 27.3602L18.2589 24.5763C18.0331 24.4409 17.8734 24.2257 17.8094 23.9702C17.746 23.7152 17.7857 23.4503 17.921 23.2247C18.0054 23.0836 18.1238 22.9724 18.2611 22.8903L18.2598 22.8895C18.034 22.754 17.8742 22.5388 17.8106 22.2837C17.7466 22.0285 17.7863 21.7635 17.9218 21.5375C18.009 21.3924 18.1286 21.2789 18.265 21.1984C18.0669 21.0621 17.9242 20.8642 17.8655 20.6293C17.8016 20.374 17.8413 20.1091 17.9767 19.8835C18.112 19.6576 18.3273 19.4981 18.5825 19.4343C18.6622 19.4143 18.7431 19.4044 18.8231 19.4044C18.9802 19.4046 19.1344 19.4445 19.2761 19.5186C19.2847 19.3351 19.3394 19.1548 19.4466 19.0002C19.7406 18.576 20.3297 18.4585 20.7886 18.7339L24.5888 21.0134L24.0989 20.1311C23.911 19.7942 23.9179 19.3787 24.1171 19.0464C24.2142 18.8847 24.353 18.7504 24.5187 18.6574C24.655 18.582 24.8026 18.5462 24.9482 18.5462C25.261 18.5464 25.5647 18.7114 25.7264 19.0035C26.2898 20.0188 27.3532 21.9335 27.4279 22.0672C27.4438 22.0903 27.4919 22.1592 27.5331 22.2177C27.5723 22.2733 27.6146 22.3265 27.6583 22.3793C28.6072 23.5295 28.7217 25.0358 27.9567 26.3107L27.9567 26.3107ZM27.2543 22.713C27.2022 22.6499 27.151 22.5854 27.1044 22.519C26.9627 22.318 26.9591 22.3127 26.9485 22.2601C26.7828 21.986 26.3788 21.2586 25.2681 19.2575C25.1707 19.0819 24.9493 19.0178 24.773 19.1152C24.6862 19.1637 24.6165 19.2314 24.5657 19.3162C24.4627 19.4879 24.4588 19.7024 24.556 19.8766L25.52 21.6134C25.5775 21.7171 25.5583 21.8463 25.4732 21.9286C25.3883 22.0111 25.2584 22.0256 25.1564 21.9649L20.519 19.1829C20.3004 19.0519 20.0123 19.1032 19.8772 19.2983C19.7994 19.4105 19.7747 19.5443 19.8072 19.675C19.837 19.7944 19.9119 19.8951 20.018 19.9587C20.0184 19.9589 20.0185 19.9592 20.0189 19.9594L23.0509 21.7784C23.1749 21.8529 23.2151 22.0136 23.1406 22.1377C23.0662 22.2615 22.9056 22.302 22.7813 22.2274L19.0589 19.9943C18.9533 19.931 18.8289 19.9124 18.7096 19.9424C18.5898 19.9722 18.4892 20.047 18.4257 20.1531C18.3621 20.2589 18.3437 20.383 18.3732 20.5024C18.4031 20.6218 18.478 20.7226 18.5839 20.7863L19.3083 21.2207L22.3062 23.0194C22.4302 23.0938 22.4704 23.2545 22.3959 23.3787C22.3215 23.5025 22.1609 23.5428 22.0366 23.4684L19.0039 21.6489C18.7858 21.5177 18.5018 21.5889 18.3706 21.8073C18.307 21.9132 18.2886 22.0374 18.3181 22.1568C18.348 22.2762 18.4229 22.3768 18.529 22.4406L19.2726 22.8867L21.5617 24.2601C21.6857 24.3346 21.7259 24.4953 21.6514 24.6194C21.577 24.7433 21.4164 24.7839 21.2921 24.7091L19.0029 23.3357C18.8973 23.2724 18.7735 23.2537 18.6535 23.2837C18.5341 23.3136 18.4331 23.3883 18.3696 23.4941C18.3061 23.6001 18.2876 23.7244 18.3171 23.8436C18.347 23.963 18.4219 24.0637 18.528 24.1275L23.1687 26.9114C23.9218 27.3632 24.7903 27.5196 25.6132 27.3517C26.4276 27.1854 27.1003 26.7201 27.5073 26.0415C28.1651 24.9457 28.0705 23.7014 27.2546 22.713L27.2543 22.713Z"/>
</mask>
<path d="M27.9567 26.3107C27.4734 27.1167 26.6785 27.6684 25.7184 27.8645C24.7667 28.0585 23.7659 27.8796 22.8996 27.3602L18.2589 24.5763C18.0331 24.4409 17.8734 24.2257 17.8094 23.9702C17.746 23.7152 17.7857 23.4503 17.921 23.2247C18.0054 23.0836 18.1238 22.9724 18.2611 22.8903L18.2598 22.8895C18.034 22.754 17.8742 22.5388 17.8106 22.2837C17.7466 22.0285 17.7863 21.7635 17.9218 21.5375C18.009 21.3924 18.1286 21.2789 18.265 21.1984C18.0669 21.0621 17.9242 20.8642 17.8655 20.6293C17.8016 20.374 17.8413 20.1091 17.9767 19.8835C18.112 19.6576 18.3273 19.4981 18.5825 19.4343C18.6622 19.4143 18.7431 19.4044 18.8231 19.4044C18.9802 19.4046 19.1344 19.4445 19.2761 19.5186C19.2847 19.3351 19.3394 19.1548 19.4466 19.0002C19.7406 18.576 20.3297 18.4585 20.7886 18.7339L24.5888 21.0134L24.0989 20.1311C23.911 19.7942 23.9179 19.3787 24.1171 19.0464C24.2142 18.8847 24.353 18.7504 24.5187 18.6574C24.655 18.582 24.8026 18.5462 24.9482 18.5462C25.261 18.5464 25.5647 18.7114 25.7264 19.0035C26.2898 20.0188 27.3532 21.9335 27.4279 22.0672C27.4438 22.0903 27.4919 22.1592 27.5331 22.2177C27.5723 22.2733 27.6146 22.3265 27.6583 22.3793C28.6072 23.5295 28.7217 25.0358 27.9567 26.3107L27.9567 26.3107ZM27.2543 22.713C27.2022 22.6499 27.151 22.5854 27.1044 22.519C26.9627 22.318 26.9591 22.3127 26.9485 22.2601C26.7828 21.986 26.3788 21.2586 25.2681 19.2575C25.1707 19.0819 24.9493 19.0178 24.773 19.1152C24.6862 19.1637 24.6165 19.2314 24.5657 19.3162C24.4627 19.4879 24.4588 19.7024 24.556 19.8766L25.52 21.6134C25.5775 21.7171 25.5583 21.8463 25.4732 21.9286C25.3883 22.0111 25.2584 22.0256 25.1564 21.9649L20.519 19.1829C20.3004 19.0519 20.0123 19.1032 19.8772 19.2983C19.7994 19.4105 19.7747 19.5443 19.8072 19.675C19.837 19.7944 19.9119 19.8951 20.018 19.9587C20.0184 19.9589 20.0185 19.9592 20.0189 19.9594L23.0509 21.7784C23.1749 21.8529 23.2151 22.0136 23.1406 22.1377C23.0662 22.2615 22.9056 22.302 22.7813 22.2274L19.0589 19.9943C18.9533 19.931 18.8289 19.9124 18.7096 19.9424C18.5898 19.9722 18.4892 20.047 18.4257 20.1531C18.3621 20.2589 18.3437 20.383 18.3732 20.5024C18.4031 20.6218 18.478 20.7226 18.5839 20.7863L19.3083 21.2207L22.3062 23.0194C22.4302 23.0938 22.4704 23.2545 22.3959 23.3787C22.3215 23.5025 22.1609 23.5428 22.0366 23.4684L19.0039 21.6489C18.7858 21.5177 18.5018 21.5889 18.3706 21.8073C18.307 21.9132 18.2886 22.0374 18.3181 22.1568C18.348 22.2762 18.4229 22.3768 18.529 22.4406L19.2726 22.8867L21.5617 24.2601C21.6857 24.3346 21.7259 24.4953 21.6514 24.6194C21.577 24.7433 21.4164 24.7839 21.2921 24.7091L19.0029 23.3357C18.8973 23.2724 18.7735 23.2537 18.6535 23.2837C18.5341 23.3136 18.4331 23.3883 18.3696 23.4941C18.3061 23.6001 18.2876 23.7244 18.3171 23.8436C18.347 23.963 18.4219 24.0637 18.528 24.1275L23.1687 26.9114C23.9218 27.3632 24.7903 27.5196 25.6132 27.3517C26.4276 27.1854 27.1003 26.7201 27.5073 26.0415C28.1651 24.9457 28.0705 23.7014 27.2546 22.713L27.2543 22.713Z" fill="#D2BA8A"/>
<path d="M27.9567 26.3107L27.6572 25.4322L30.0559 24.6145L28.7527 26.788L27.9567 26.3107ZM25.7184 27.8645L25.9041 28.7738L25.9038 28.7739L25.7184 27.8645ZM22.8996 27.3602L22.4224 28.1562L22.4222 28.1561L22.8996 27.3602ZM18.2589 24.5763L18.7364 23.7804L18.7364 23.7804L18.2589 24.5763ZM17.8094 23.9702L16.9091 24.1955L16.9088 24.1943L17.8094 23.9702ZM17.921 23.2247L18.7172 23.7015L18.7169 23.7019L17.921 23.2247ZM18.2611 22.8903L18.753 22.1033L20.0396 22.9074L18.7377 23.6866L18.2611 22.8903ZM18.2598 22.8895L18.7372 22.0936L18.7445 22.0979L18.7517 22.1024L18.2598 22.8895ZM17.8106 22.2837L18.7109 22.058L18.7111 22.0592L17.8106 22.2837ZM17.9218 21.5375L17.1258 21.0603L17.1264 21.0594L17.9218 21.5375ZM18.265 21.1984L18.791 20.4337L19.9897 21.2583L18.7367 21.9977L18.265 21.1984ZM17.8655 20.6293L18.7658 20.4038L18.7659 20.4042L17.8655 20.6293ZM17.9767 19.8835L18.7729 20.3605L18.7725 20.3611L17.9767 19.8835ZM18.5825 19.4343L18.8085 20.3345L18.8076 20.3347L18.5825 19.4343ZM18.8231 19.4044V18.4764L18.8241 18.4764L18.8231 19.4044ZM19.2761 19.5186L20.2031 19.5625L20.1343 21.015L18.8458 20.3409L19.2761 19.5186ZM19.4466 19.0002L20.2094 19.5289L20.2093 19.5291L19.4466 19.0002ZM20.7886 18.7339L20.3112 19.5298L20.311 19.5297L20.7886 18.7339ZM24.5888 21.0134L25.4002 20.5629L27.0812 23.5907L24.1114 21.8093L24.5888 21.0134ZM24.0989 20.1311L24.9094 19.6789L24.9104 19.6806L24.0989 20.1311ZM24.1171 19.0464L23.3212 18.5691L23.3214 18.5687L24.1171 19.0464ZM24.5187 18.6574L24.0648 17.8479L24.0693 17.8454L24.5187 18.6574ZM24.9482 18.5462V17.6182L24.9487 17.6182L24.9482 18.5462ZM25.7264 19.0035L24.9149 19.4538L24.9144 19.4529L25.7264 19.0035ZM27.4279 22.0672L26.6633 22.5932L26.6389 22.5578L26.618 22.5203L27.4279 22.0672ZM27.5331 22.2177L26.7745 22.7525L26.7739 22.7516L27.5331 22.2177ZM27.6583 22.3793L28.3728 21.7869L28.3743 21.7887L27.6583 22.3793ZM27.9567 26.3107L28.2561 27.1891L25.8562 28.0073L27.1608 25.8332L27.9567 26.3107ZM27.2543 22.713L27.3463 23.6366L26.8539 23.6856L26.5388 23.3041L27.2543 22.713ZM27.1044 22.519L27.8631 21.9844L27.8643 21.9862L27.1044 22.519ZM26.9485 22.2601L27.7428 21.78L27.8261 21.9179L27.8581 22.0759L26.9485 22.2601ZM25.2681 19.2575L24.4566 19.7079L24.4564 19.7077L25.2681 19.2575ZM24.773 19.1152L24.3198 18.3052L24.3241 18.3028L24.773 19.1152ZM24.5657 19.3162L25.3617 19.7935L25.3616 19.7936L24.5657 19.3162ZM24.556 19.8766L25.3663 19.4242L25.3675 19.4262L24.556 19.8766ZM25.52 21.6134L24.7086 22.0641L24.7085 22.0638L25.52 21.6134ZM25.4732 21.9286L24.8267 21.2628L24.828 21.2615L25.4732 21.9286ZM25.1564 21.9649L24.6819 22.7625L24.6789 22.7607L25.1564 21.9649ZM20.519 19.1829L20.9962 18.3869L20.9965 18.387L20.519 19.1829ZM19.8772 19.2983L20.6402 19.8267L20.64 19.827L19.8772 19.2983ZM19.8072 19.675L18.9068 19.9001L18.9064 19.8988L19.8072 19.675ZM20.018 19.9587L19.6029 20.7888L19.5712 20.7729L19.5407 20.7547L20.018 19.9587ZM20.0189 19.9594L20.434 19.1293L20.4658 19.1452L20.4963 19.1635L20.0189 19.9594ZM23.0509 21.7784L23.5284 20.9825L23.5287 20.9828L23.0509 21.7784ZM23.1406 22.1377L23.9366 22.6151L23.936 22.616L23.1406 22.1377ZM22.7813 22.2274L23.2588 21.4315L23.259 21.4317L22.7813 22.2274ZM19.0589 19.9943L19.536 19.1983L19.5363 19.1985L19.0589 19.9943ZM18.7096 19.9424L18.9358 20.8425L18.9341 20.8429L18.7096 19.9424ZM18.4257 20.1531L19.2222 20.6295L19.221 20.6315L18.4257 20.1531ZM18.3732 20.5024L17.4728 20.7275L17.4723 20.7252L18.3732 20.5024ZM18.5839 20.7863L18.1066 21.5822L18.1061 21.5819L18.5839 20.7863ZM19.3083 21.2207L19.7857 20.4248L19.7858 20.4248L19.3083 21.2207ZM22.3062 23.0194L22.7837 22.2235L22.784 22.2237L22.3062 23.0194ZM22.3959 23.3787L23.1919 23.856L23.1913 23.8569L22.3959 23.3787ZM22.0366 23.4684L21.5597 24.2646L21.5592 24.2642L22.0366 23.4684ZM19.0039 21.6489L18.5265 22.4447L18.5256 22.4442L19.0039 21.6489ZM18.3706 21.8073L19.1662 22.2851L19.1662 22.2852L18.3706 21.8073ZM18.3181 22.1568L17.4177 22.3819L17.4172 22.3795L18.3181 22.1568ZM18.529 22.4406L18.0516 23.2365L18.0508 23.236L18.529 22.4406ZM19.2726 22.8867L19.75 22.0908L19.75 22.0909L19.2726 22.8867ZM21.5617 24.2601L22.0392 23.4643L22.0395 23.4645L21.5617 24.2601ZM21.6514 24.6194L22.4473 25.0968L22.4468 25.0977L21.6514 24.6194ZM21.2921 24.7091L21.7696 23.9133L21.7705 23.9139L21.2921 24.7091ZM19.0029 23.3357L19.4801 22.5397L19.4804 22.5399L19.0029 23.3357ZM18.6535 23.2837L18.4284 22.3833L18.4284 22.3833L18.6535 23.2837ZM18.3696 23.4941L17.5735 23.0172L17.5738 23.0166L18.3696 23.4941ZM18.3171 23.8436L17.4167 24.0687L17.4162 24.0666L18.3171 23.8436ZM18.528 24.1275L18.0506 24.9233L18.0498 24.9229L18.528 24.1275ZM23.1687 26.9114L23.6462 26.1155L23.6462 26.1155L23.1687 26.9114ZM25.6132 27.3517L25.7989 28.261L25.7988 28.261L25.6132 27.3517ZM27.5073 26.0415L26.7114 25.5642L26.7116 25.5639L27.5073 26.0415ZM27.2546 22.713L27.1627 21.7895L27.6552 21.7404L27.9704 22.1222L27.2546 22.713ZM28.7527 26.788C28.1291 27.8278 27.1068 28.5281 25.9041 28.7738L25.5326 26.9552C26.2502 26.8086 26.8176 26.4056 27.1607 25.8334L28.7527 26.788ZM25.9038 28.7739C24.7152 29.0162 23.4789 28.7897 22.4224 28.1562L23.3769 26.5643C24.0528 26.9695 24.8183 27.1008 25.533 26.9551L25.9038 28.7739ZM22.4222 28.1561L17.7815 25.3722L18.7364 23.7804L23.3771 26.5644L22.4222 28.1561ZM17.7815 25.3722C17.3451 25.1104 17.033 24.6902 16.9091 24.1955L18.7098 23.7448C18.7123 23.7549 18.7158 23.7611 18.7189 23.7653C18.722 23.7695 18.7271 23.7749 18.7364 23.7804L17.7815 25.3722ZM16.9088 24.1943C16.7859 23.7003 16.8636 23.1833 17.125 22.7474L18.7169 23.7019C18.7114 23.7112 18.7093 23.7184 18.7085 23.7238C18.7077 23.7291 18.7076 23.7362 18.7101 23.746L16.9088 24.1943ZM17.1247 22.7478C17.2968 22.4605 17.532 22.2451 17.7844 22.0939L18.7377 23.6866C18.7264 23.6934 18.7204 23.6986 18.718 23.701C18.7158 23.7031 18.7162 23.7032 18.7172 23.7015L17.1247 22.7478ZM17.7692 23.6773L17.7679 23.6765L18.7517 22.1024L18.753 22.1033L17.7692 23.6773ZM17.7823 23.6853C17.3461 23.4237 17.0335 23.0034 16.9101 22.5082L18.7111 22.0592C18.7135 22.0686 18.7168 22.0745 18.7198 22.0786C18.7228 22.0827 18.7279 22.088 18.7372 22.0936L17.7823 23.6853ZM16.9104 22.5093C16.7863 22.0142 16.8643 21.4964 17.1258 21.0603L18.7178 22.0147C18.7121 22.0242 18.7101 22.0314 18.7093 22.0366C18.7086 22.0417 18.7085 22.0485 18.7109 22.058L16.9104 22.5093ZM17.1264 21.0594C17.2977 20.7743 17.5318 20.5534 17.7933 20.3991L18.7367 21.9977C18.7307 22.0012 18.7266 22.0046 18.7239 22.0072C18.7213 22.0097 18.7192 22.0123 18.7172 22.0157L17.1264 21.0594ZM17.739 21.963C17.3641 21.7051 17.0815 21.3198 16.9652 20.8544L18.7659 20.4042C18.767 20.4086 18.7685 20.4117 18.7709 20.4151C18.7735 20.4188 18.7793 20.4257 18.791 20.4337L17.739 21.963ZM16.9653 20.8548C16.8413 20.3598 16.9191 19.842 17.181 19.4058L18.7725 20.3611C18.767 20.3703 18.765 20.3773 18.7643 20.3823C18.7635 20.3872 18.7634 20.3941 18.7658 20.4038L16.9653 20.8548ZM17.1806 19.4065C17.4425 18.9693 17.8633 18.6574 18.3575 18.5339L18.8076 20.3347C18.7977 20.3372 18.7915 20.3406 18.7874 20.3437C18.7833 20.3467 18.7781 20.3516 18.7729 20.3605L17.1806 19.4065ZM18.3566 18.5341C18.5103 18.4955 18.6671 18.4764 18.8231 18.4764V20.3325C18.8191 20.3325 18.8142 20.333 18.8085 20.3345L18.3566 18.5341ZM18.8241 18.4764C19.1393 18.4767 19.44 18.5569 19.7063 18.6962L18.8458 20.3409C18.837 20.3363 18.8307 20.3343 18.8272 20.3334C18.8238 20.3325 18.8222 20.3325 18.8221 20.3325L18.8241 18.4764ZM18.349 19.4747C18.365 19.1372 18.4668 18.7845 18.684 18.4713L20.2093 19.5291C20.212 19.5252 20.2045 19.533 20.2031 19.5625L18.349 19.4747ZM18.6838 18.4715C19.2717 17.6234 20.4114 17.4252 21.2661 17.938L20.311 19.5297C20.284 19.5135 20.2575 19.5109 20.2367 19.515C20.2163 19.519 20.2108 19.5269 20.2094 19.5289L18.6838 18.4715ZM21.266 17.938L25.0662 20.2175L24.1114 21.8093L20.3112 19.5298L21.266 17.938ZM23.7774 21.4639L23.2875 20.5816L24.9104 19.6806L25.4002 20.5629L23.7774 21.4639ZM23.2885 20.5833C22.9379 19.955 22.9519 19.1849 23.3212 18.5691L24.9131 19.5237C24.8839 19.5724 24.8841 19.6335 24.9094 19.6789L23.2885 20.5833ZM23.3214 18.5687C23.5024 18.2672 23.7595 18.0191 24.0648 17.8479L24.9727 19.4669C24.9464 19.4817 24.926 19.5022 24.9128 19.5242L23.3214 18.5687ZM24.0693 17.8454C24.347 17.6917 24.6498 17.6182 24.9482 17.6182V19.4743C24.9514 19.4743 24.9551 19.4739 24.959 19.4729C24.963 19.4719 24.9662 19.4705 24.9682 19.4694L24.0693 17.8454ZM24.9487 17.6182C25.5829 17.6185 26.2057 17.9531 26.5384 18.554L24.9144 19.4529C24.9158 19.4556 24.9183 19.4591 24.9217 19.4625C24.925 19.4658 24.9283 19.4682 24.9312 19.4699C24.9365 19.4729 24.9417 19.4743 24.9477 19.4743L24.9487 17.6182ZM26.5379 18.5531C27.102 19.5696 28.1641 21.4822 28.2379 21.6141L26.618 22.5203C26.5422 22.3848 25.4777 20.4679 24.9149 19.4538L26.5379 18.5531ZM28.1926 21.5412C28.2057 21.5602 28.2515 21.6259 28.2923 21.6839L26.7739 22.7516C26.7323 22.6925 26.682 22.6204 26.6633 22.5932L28.1926 21.5412ZM28.2916 21.683C28.3108 21.7102 28.3358 21.7423 28.3728 21.7869L26.9439 22.9717C26.8933 22.9106 26.8337 22.8365 26.7745 22.7525L28.2916 21.683ZM28.3743 21.7887C29.5722 23.2408 29.7206 25.1748 28.7525 26.7882L27.1608 25.8332C27.7228 24.8967 27.6422 23.8182 26.9424 22.9699L28.3743 21.7887ZM27.6572 25.4322L27.6572 25.4322L28.2562 27.1891L28.2561 27.1891L27.6572 25.4322ZM26.5388 23.3041C26.4801 23.233 26.4114 23.1472 26.3446 23.0519L27.8643 21.9862C27.8906 22.0236 27.9242 22.0667 27.9699 22.122L26.5388 23.3041ZM26.3458 23.0537C26.2874 22.9707 26.2246 22.8827 26.1829 22.8137C26.155 22.7676 26.1177 22.7002 26.0862 22.6143C26.0555 22.5307 26.0418 22.4591 26.0388 22.4443L27.8581 22.0759C27.8604 22.0874 27.8513 22.0362 27.8287 21.9747C27.8053 21.9109 27.7797 21.8672 27.7718 21.8541C27.768 21.8478 27.7665 21.8458 27.7694 21.8502C27.7722 21.8544 27.7772 21.8617 27.7855 21.8738C27.8028 21.8989 27.8266 21.9327 27.8631 21.9844L26.3458 23.0537ZM26.1542 22.7402C25.9769 22.4468 25.5595 21.695 24.4566 19.7079L26.0795 18.8071C27.198 20.8222 27.5888 21.5253 27.7428 21.78L26.1542 22.7402ZM24.4564 19.7077C24.6067 19.9786 24.9488 20.0784 25.2218 19.9275L24.3241 18.3028C24.9497 17.9572 25.7346 18.1851 26.0797 18.8074L24.4564 19.7077ZM25.2261 19.9251C25.2807 19.8946 25.3292 19.8476 25.3617 19.7935L23.7697 18.839C23.9038 18.6153 24.0917 18.4328 24.3198 18.3052L25.2261 19.9251ZM25.3616 19.7936C25.428 19.6828 25.4325 19.5427 25.3663 19.4242L23.7457 20.3291C23.485 19.8622 23.4973 19.293 23.7698 18.8388L25.3616 19.7936ZM25.3675 19.4262L26.3314 21.1631L24.7085 22.0638L23.7445 20.327L25.3675 19.4262ZM26.3313 21.1628C26.5926 21.6333 26.5058 22.2211 26.1185 22.5957L24.828 21.2615C24.6108 21.4716 24.5624 21.8009 24.7086 22.0641L26.3313 21.1628ZM26.1198 22.5945C25.7293 22.9736 25.1389 23.0344 24.6819 22.7625L25.6309 21.1672C25.3778 21.0167 25.0472 21.0486 24.8267 21.2628L26.1198 22.5945ZM24.6789 22.7607L20.0416 19.9788L20.9965 18.387L25.6338 21.169L24.6789 22.7607ZM20.0419 19.9789C20.1324 20.0332 20.2347 20.049 20.3306 20.0318C20.4266 20.0146 20.5503 19.9565 20.6402 19.8267L19.1142 18.77C19.5609 18.1249 20.4102 18.0356 20.9962 18.3869L20.0419 19.9789ZM20.64 19.827C20.7125 19.7224 20.7405 19.5826 20.7079 19.4513L18.9064 19.8988C18.8089 19.5061 18.8864 19.0986 19.1144 18.7697L20.64 19.827ZM20.7075 19.4499C20.6771 19.3284 20.5986 19.2247 20.4954 19.1628L19.5407 20.7547C19.2253 20.5655 18.9969 20.2605 18.9068 19.9001L20.7075 19.4499ZM20.4332 19.1287C20.517 19.1706 20.5787 19.2174 20.6178 19.2504C20.637 19.2666 20.6518 19.2806 20.6608 19.2892C20.6653 19.2935 20.669 19.2971 20.6712 19.2993C20.6723 19.3004 20.6732 19.3014 20.6738 19.3019C20.6741 19.3022 20.6743 19.3024 20.6745 19.3026C20.6745 19.3026 20.6746 19.3027 20.6746 19.3027C20.6746 19.3027 20.6747 19.3028 20.6747 19.3028C20.6747 19.3028 20.6747 19.3028 20.6747 19.3028C20.6747 19.3028 20.6747 19.3028 20.6747 19.3028C20.675 19.3031 20.6733 19.3014 20.6713 19.2994C20.6691 19.2973 20.6655 19.2937 20.661 19.2894C20.6521 19.2808 20.6373 19.2669 20.6181 19.2508C20.5792 19.2178 20.5177 19.1712 20.434 19.1293L19.6037 20.7895C19.5199 20.7475 19.4582 20.7008 19.4192 20.6678C19.4 20.6515 19.3851 20.6376 19.3761 20.629C19.3716 20.6246 19.3679 20.621 19.3657 20.6188C19.3646 20.6177 19.3637 20.6168 19.3631 20.6162C19.3628 20.616 19.3626 20.6157 19.3625 20.6156C19.3624 20.6155 19.3623 20.6155 19.3623 20.6154C19.3623 20.6154 19.3623 20.6154 19.3622 20.6154C19.3622 20.6154 19.3622 20.6154 19.3622 20.6154C19.3622 20.6154 19.3622 20.6154 19.3622 20.6154C19.3619 20.6151 19.3636 20.6168 19.3656 20.6187C19.3678 20.6209 19.3714 20.6244 19.3759 20.6288C19.3848 20.6373 19.3996 20.6512 19.4188 20.6674C19.4577 20.7003 19.5192 20.747 19.6029 20.7888L20.4332 19.1287ZM20.4963 19.1635L23.5284 20.9825L22.5735 22.5743L19.5414 20.7553L20.4963 19.1635ZM23.5287 20.9828C24.0921 21.3211 24.2744 22.0517 23.9366 22.6151L22.3447 21.6603C22.1557 21.9754 22.2577 22.3846 22.5731 22.5741L23.5287 20.9828ZM23.936 22.616C23.5985 23.1773 22.8688 23.3624 22.3037 23.0231L23.259 21.4317C22.9425 21.2417 22.5339 21.3458 22.3453 21.6594L23.936 22.616ZM22.3039 23.0233L18.5814 20.7902L19.5363 19.1985L23.2588 21.4315L22.3039 23.0233ZM18.5817 20.7904C18.686 20.8529 18.8145 20.8729 18.9358 20.8425L18.4833 19.0423C18.8434 18.9518 19.2205 19.0092 19.536 19.1983L18.5817 20.7904ZM18.9341 20.8429C19.0546 20.8128 19.1594 20.7345 19.2222 20.6295L17.6292 19.6767C17.8189 19.3595 18.1251 19.1316 18.485 19.0418L18.9341 20.8429ZM19.221 20.6315C19.2847 20.5255 19.3033 20.3974 19.2742 20.2796L17.4723 20.7252C17.3841 20.3686 17.4394 19.9922 17.6304 19.6747L19.221 20.6315ZM19.2736 20.2773C19.2434 20.1564 19.1653 20.0528 19.0618 19.9906L18.1061 21.5819C17.7907 21.3925 17.5627 21.0872 17.4728 20.7275L19.2736 20.2773ZM19.0613 19.9903L19.7857 20.4248L18.831 22.0166L18.1066 21.5822L19.0613 19.9903ZM19.7858 20.4248L22.7837 22.2235L21.8288 23.8152L18.8308 22.0165L19.7858 20.4248ZM22.784 22.2237C23.3474 22.5621 23.5297 23.2927 23.1919 23.856L21.6 22.9013C21.4111 23.2164 21.513 23.6256 21.8284 23.815L22.784 22.2237ZM23.1913 23.8569C22.8533 24.4191 22.1236 24.6023 21.5597 24.2646L22.5135 22.6722C22.1983 22.4834 21.7897 22.5859 21.6006 22.9004L23.1913 23.8569ZM21.5592 24.2642L18.5265 22.4447L19.4814 20.853L22.5141 22.6725L21.5592 24.2642ZM18.5256 22.4442C18.7484 22.5782 19.0343 22.5048 19.1662 22.2851L17.575 21.3294C17.9693 20.6729 18.8232 20.4571 19.4823 20.8536L18.5256 22.4442ZM19.1662 22.2852C19.2295 22.1798 19.2482 22.0519 19.2191 21.934L17.4172 22.3795C17.329 22.0228 17.3844 21.6467 17.575 21.3294L19.1662 22.2852ZM19.2185 21.9317C19.1881 21.81 19.1096 21.7068 19.0072 21.6452L18.0508 23.236C17.7362 23.0469 17.5078 22.7423 17.4177 22.3819L19.2185 21.9317ZM19.0065 21.6448L19.75 22.0908L18.7951 23.6826L18.0516 23.2365L19.0065 21.6448ZM19.75 22.0909L22.0392 23.4643L21.0842 25.056L18.7951 23.6825L19.75 22.0909ZM22.0395 23.4645C22.6029 23.8028 22.7852 24.5334 22.4473 25.0968L20.8555 24.1421C20.6665 24.4572 20.7685 24.8664 21.0839 25.0558L22.0395 23.4645ZM22.4468 25.0977C22.1098 25.6581 21.38 25.8451 20.8137 25.5044L21.7705 23.9139C21.4528 23.7227 21.0441 23.8284 20.856 24.1412L22.4468 25.0977ZM20.8146 25.505L18.5255 24.1315L19.4804 22.5399L21.7696 23.9133L20.8146 25.505ZM18.5258 24.1318C18.6303 24.1944 18.759 24.214 18.8786 24.1841L18.4284 22.3833C18.7881 22.2934 19.1643 22.3504 19.4801 22.5397L18.5258 24.1318ZM18.8786 24.1841C18.998 24.1542 19.1023 24.0769 19.1654 23.9716L17.5738 23.0166C17.7639 22.6998 18.0702 22.4729 18.4284 22.3833L18.8786 24.1841ZM19.1658 23.9711C19.2281 23.867 19.2475 23.7397 19.218 23.6205L17.4162 24.0666C17.3277 23.7091 17.3842 23.3331 17.5735 23.0172L19.1658 23.9711ZM19.2175 23.6185C19.1871 23.4968 19.1086 23.3936 19.0062 23.3321L18.0498 24.9229C17.7353 24.7337 17.5069 24.4291 17.4168 24.0687L19.2175 23.6185ZM19.0055 23.3316L23.6462 26.1155L22.6913 27.7072L18.0506 24.9233L19.0055 23.3316ZM23.6462 26.1155C24.2102 26.4539 24.8433 26.5616 25.4277 26.4423L25.7988 28.261C24.7373 28.4776 23.6334 28.2725 22.6913 27.7072L23.6462 26.1155ZM25.4275 26.4424C26.0015 26.3252 26.4457 26.0072 26.7114 25.5642L28.3032 26.5189C27.7549 27.4331 26.8537 28.0456 25.7989 28.261L25.4275 26.4424ZM26.7116 25.5639C27.1661 24.8066 27.1055 23.9902 26.5389 23.3038L27.9704 22.1222C29.0355 23.4125 29.1641 25.0848 28.3031 26.5192L26.7116 25.5639ZM27.3466 23.6365L27.3463 23.6366L27.1624 21.7895L27.1627 21.7895L27.3466 23.6365Z" fill="#D2BA8A" mask="url(#path-4-inside-2_1083_235)"/>
</svg>
