<svg width="34" height="23" viewBox="0 0 34 23" fill="none" xmlns="http://www.w3.org/2000/svg">
<path d="M11.4856 0.874756C13.0249 0.87485 14.5292 1.319 15.8196 2.15015L16.0745 2.32104C17.3356 3.20349 18.3139 4.42964 18.8948 5.85034L19.0052 6.13745C19.5326 7.58367 19.631 9.14902 19.2923 10.6462L19.219 10.9441C18.7956 12.5304 17.8944 13.9487 16.638 15.0056L16.2151 15.3611L16.719 15.5886C18.7885 16.5252 20.5692 17.9993 21.8763 19.8572L21.8811 19.864L21.887 19.8708C21.963 19.9683 22.0234 20.0769 22.0667 20.1921L22.1048 20.3103C22.1468 20.4698 22.1553 20.6364 22.1311 20.7996C22.113 20.9218 22.0764 21.0403 22.0227 21.1511L21.9632 21.2595C21.8982 21.3649 21.818 21.4599 21.7249 21.5408L21.6282 21.6169C21.4934 21.7119 21.3403 21.7781 21.179 21.8123C21.0579 21.8379 20.9335 21.8454 20.8108 21.8337L20.6888 21.8152C20.5269 21.783 20.3727 21.7182 20.2366 21.6248H20.2376C20.1015 21.5314 19.985 21.4117 19.8968 21.2722L19.8929 21.2654L19.888 21.2585L19.7063 21.0085C18.8438 19.8554 17.7487 18.8963 16.4915 18.1941L16.22 18.0476C14.7576 17.2876 13.1337 16.8905 11.4856 16.8904C9.94039 16.8904 8.41618 17.24 7.02664 17.9099L6.75027 18.0476C5.37908 18.7603 4.18796 19.7732 3.26395 21.0085L3.08231 21.2585L3.08133 21.2595C2.99779 21.3794 2.89362 21.4831 2.77371 21.5652L2.64871 21.6394C2.51914 21.7068 2.3789 21.7502 2.23465 21.7673L2.08914 21.7761H2.08719C1.89956 21.7767 1.71531 21.7325 1.5491 21.6492L1.38992 21.5535L1.38797 21.5525L1.29324 21.4783C1.08176 21.2952 0.939178 21.0434 0.8909 20.7654C0.842649 20.4873 0.892163 20.2024 1.02957 19.9587L1.09402 19.8572C2.40109 17.9993 4.18174 16.5252 6.25125 15.5886L6.75516 15.3611L6.33231 15.0056C5.15445 14.0147 4.28873 12.7067 3.83621 11.24L3.75125 10.9441C3.35436 9.45704 3.39543 7.8895 3.86551 6.42847L3.96512 6.13745C4.4925 4.69135 5.42479 3.43031 6.64774 2.50269L6.89578 2.32104C8.24101 1.37977 9.84379 0.874756 11.4856 0.874756ZM22.1214 0.884521H22.1233C23.6633 0.880119 25.1697 1.32082 26.4622 2.15015L26.718 2.32202C27.9812 3.20307 28.9607 4.429 29.5423 5.85034L29.6536 6.13745C30.1815 7.58431 30.2792 9.15059 29.9388 10.6482L29.8655 10.946C29.44 12.5328 28.5354 13.9502 27.2757 15.0046L26.8509 15.3601L27.3557 15.5886C29.296 16.4667 30.9827 17.8171 32.263 19.5134L32.513 19.8572L32.5149 19.8591C32.5846 19.9567 32.6391 20.0642 32.677 20.1775L32.7093 20.2917C32.7359 20.4086 32.7453 20.5291 32.7366 20.6482L32.722 20.7664C32.7015 20.8844 32.6636 20.9988 32.6096 21.1052L32.5501 21.2087C32.4857 21.3096 32.4065 21.3999 32.3157 21.4773L32.221 21.5505L32.2171 21.5535C32.0138 21.6988 31.7697 21.776 31.5198 21.7751C31.3247 21.7738 31.1323 21.7265 30.9593 21.6365C30.8295 21.5689 30.7132 21.4788 30.6155 21.3708L30.5237 21.2566C29.5747 19.9105 28.3165 18.8115 26.8548 18.0525C25.4841 17.3407 23.972 16.9471 22.4309 16.8992L22.1223 16.8943L22.0013 16.8884C21.7624 16.8646 21.5356 16.771 21.3499 16.6189L21.261 16.5378C21.0326 16.3094 20.9036 15.9995 20.9036 15.6765C20.9036 15.3937 21.0022 15.1209 21.18 14.9041L21.261 14.8152C21.4894 14.5868 21.7993 14.4587 22.1223 14.4587C23.5069 14.4586 24.8382 13.9424 25.8596 13.0173L26.0598 12.8269C27.1039 11.7826 27.6907 10.3661 27.6907 8.8894C27.6906 7.50499 27.1751 6.17351 26.2503 5.1521L26.0598 4.9519C25.0807 3.97278 23.7742 3.39608 22.3977 3.32788L22.1223 3.32104C21.7407 3.32034 21.3603 3.35963 20.9876 3.43823L20.6165 3.53003L20.4954 3.5603C20.3769 3.58315 20.2555 3.58785 20.135 3.57495C20.0144 3.56203 19.8965 3.53169 19.7854 3.48413L19.677 3.4314C19.5709 3.37295 19.474 3.2993 19.3899 3.21265L19.3108 3.12183C19.2354 3.02678 19.1742 2.92092 19.1302 2.80835L19.0921 2.69409C19.0592 2.57733 19.0443 2.45651 19.0471 2.33569L19.0559 2.21558C19.0707 2.09528 19.1034 1.97819 19.1526 1.86792L19.2073 1.7605C19.2674 1.65529 19.342 1.55901 19.43 1.47632L19.5227 1.39819C19.6188 1.32442 19.7251 1.26565 19.8382 1.22339L19.9534 1.18628L19.9593 1.1853C20.5744 1.01018 21.2084 0.910683 21.847 0.889404L22.1214 0.884521ZM12.5716 3.42847C11.5589 3.22704 10.5115 3.31109 9.54617 3.66968L9.35379 3.74487C8.39999 4.14 7.57632 4.7923 6.97293 5.62671L6.85477 5.79565C6.24295 6.71131 5.91636 7.78816 5.91629 8.8894C5.91629 10.274 6.43176 11.6062 7.35672 12.6277L7.54715 12.8269C8.59146 13.8712 10.0088 14.4587 11.4856 14.4587C12.518 14.4586 13.5288 14.1716 14.4055 13.6316L14.5784 13.5203C15.4369 12.9466 16.1181 12.1459 16.5471 11.2097L16.6302 11.0203C17.0251 10.0665 17.146 9.02314 16.9827 8.00659L16.9466 7.80347C16.7451 6.79069 16.2666 5.85504 15.5657 5.10034L15.4231 4.9519C14.693 4.22176 13.7747 3.71056 12.7727 3.47241L12.5716 3.42847Z" fill="#D2BA8A" stroke="#D2BA8A" stroke-width="0.696069"/>
</svg>
