<svg width="34" height="35" viewBox="0 0 34 35" fill="none" xmlns="http://www.w3.org/2000/svg">
<path d="M7.1662 6.20532H27.0041C28.0857 6.20532 29.126 6.60874 29.924 7.3313L30.0803 7.47974C30.8961 8.29555 31.3546 9.40218 31.3547 10.5559V24.1292C31.3547 25.283 30.8961 26.3895 30.0803 27.2053C29.2644 28.0212 28.1579 28.4797 27.0041 28.4797H7.1662C6.08458 28.4797 5.04427 28.0773 4.24628 27.3547L4.09003 27.2053C3.27434 26.3895 2.81561 25.2828 2.81561 24.1292V10.5559C2.81567 9.4742 3.21891 8.434 3.94159 7.63599L4.09003 7.47974C4.85482 6.71494 5.87523 6.2646 6.95038 6.21118L7.1662 6.20532ZM4.20819 24.1292C4.20819 24.8156 4.44684 25.4777 4.87811 26.0042L5.0744 26.2209C5.62914 26.7757 6.38169 27.0881 7.1662 27.0881H27.0041C27.7887 27.0881 28.5411 26.7757 29.0959 26.2209C29.6507 25.6662 29.9631 24.9137 29.9631 24.1292V13.8625H4.20819V24.1292ZM22.3058 20.8235H25.4387C25.5769 20.8236 25.711 20.8642 25.8244 20.9397L25.9308 21.0266C26.0613 21.157 26.1339 21.3343 26.134 21.5188C26.134 21.7032 26.0611 21.8805 25.9308 22.011C25.8004 22.1414 25.6231 22.215 25.4387 22.2151H22.3058C22.1213 22.2151 21.9442 22.1415 21.8137 22.011C21.6833 21.8805 21.6096 21.7033 21.6096 21.5188C21.6096 21.3805 21.6511 21.2465 21.7267 21.1331L21.8137 21.0266C21.9442 20.8962 22.1213 20.8235 22.3058 20.8235ZM7.1662 7.5979C6.38169 7.59796 5.62914 7.90938 5.0744 8.46411C4.51967 9.01885 4.20825 9.7714 4.20819 10.5559V12.47H29.9631V10.5559C29.963 9.86946 29.7244 9.20727 29.2932 8.68091L29.0959 8.46411C28.5411 7.90949 27.7885 7.5979 27.0041 7.5979H7.1662Z" fill="#D2BA8A" stroke="#D2BA8A" stroke-width="0.696069"/>
</svg>
